{
	"patcher" : 	{
		"fileversion" : 1,
		"rect" : [ 63.0, 174.0, 1690.0, 899.0 ],
		"bglocked" : 0,
		"defrect" : [ 63.0, 174.0, 1690.0, 899.0 ],
		"openrect" : [ 0.0, 0.0, 0.0, 0.0 ],
		"openinpresentation" : 1,
		"default_fontsize" : 12.0,
		"default_fontface" : 0,
		"default_fontname" : "Arial",
		"gridonopen" : 0,
		"gridsize" : [ 15.0, 15.0 ],
		"gridsnaponopen" : 0,
		"toolbarvisible" : 1,
		"boxanimatetime" : 200,
		"imprint" : 0,
		"enablehscroll" : 1,
		"enablevscroll" : 1,
		"devicewidth" : 0.0,
		"title" : "Osc",
		"boxes" : [ 			{
				"box" : 				{
					"maxclass" : "newobj",
					"text" : "cmh A 5",
					"outlettype" : [ "int" ],
					"patching_rect" : [ 30.0, 75.0, 53.0, 20.0 ],
					"id" : "obj-73",
					"fontsize" : 12.0,
					"numinlets" : 1,
					"numoutlets" : 1,
					"fontname" : "Arial"
				}

			}
, 			{
				"box" : 				{
					"maxclass" : "newobj",
					"text" : "cmh B 50 64",
					"outlettype" : [ "int" ],
					"patching_rect" : [ 1050.0, 630.0, 78.0, 20.0 ],
					"id" : "obj-71",
					"fontsize" : 12.0,
					"numinlets" : 1,
					"numoutlets" : 1,
					"fontname" : "Arial"
				}

			}
, 			{
				"box" : 				{
					"maxclass" : "newobj",
					"text" : "cmh B 49 64",
					"outlettype" : [ "int" ],
					"patching_rect" : [ 945.0, 630.0, 78.0, 20.0 ],
					"id" : "obj-70",
					"fontsize" : 12.0,
					"numinlets" : 1,
					"numoutlets" : 1,
					"fontname" : "Arial"
				}

			}
, 			{
				"box" : 				{
					"maxclass" : "newobj",
					"text" : "cmh B 48 64",
					"outlettype" : [ "int" ],
					"patching_rect" : [ 840.0, 630.0, 78.0, 20.0 ],
					"id" : "obj-69",
					"fontsize" : 12.0,
					"numinlets" : 1,
					"numoutlets" : 1,
					"fontname" : "Arial"
				}

			}
, 			{
				"box" : 				{
					"maxclass" : "newobj",
					"text" : "cmh B 47 64",
					"outlettype" : [ "int" ],
					"patching_rect" : [ 735.0, 630.0, 78.0, 20.0 ],
					"id" : "obj-67",
					"fontsize" : 12.0,
					"numinlets" : 1,
					"numoutlets" : 1,
					"fontname" : "Arial"
				}

			}
, 			{
				"box" : 				{
					"maxclass" : "newobj",
					"text" : "cmh B 44",
					"outlettype" : [ "int" ],
					"patching_rect" : [ 660.0, 630.0, 61.0, 20.0 ],
					"id" : "obj-66",
					"fontsize" : 12.0,
					"numinlets" : 1,
					"numoutlets" : 1,
					"fontname" : "Arial"
				}

			}
, 			{
				"box" : 				{
					"maxclass" : "newobj",
					"text" : "cmh B 43 64",
					"outlettype" : [ "int" ],
					"patching_rect" : [ 555.0, 630.0, 78.0, 20.0 ],
					"id" : "obj-65",
					"fontsize" : 12.0,
					"numinlets" : 1,
					"numoutlets" : 1,
					"fontname" : "Arial"
				}

			}
, 			{
				"box" : 				{
					"maxclass" : "newobj",
					"text" : "cmh B 42",
					"outlettype" : [ "int" ],
					"patching_rect" : [ 405.0, 630.0, 61.0, 20.0 ],
					"id" : "obj-64",
					"fontsize" : 12.0,
					"numinlets" : 1,
					"numoutlets" : 1,
					"fontname" : "Arial"
				}

			}
, 			{
				"box" : 				{
					"maxclass" : "newobj",
					"text" : "cmh B 41",
					"outlettype" : [ "int" ],
					"patching_rect" : [ 300.0, 630.0, 61.0, 20.0 ],
					"id" : "obj-63",
					"fontsize" : 12.0,
					"numinlets" : 1,
					"numoutlets" : 1,
					"fontname" : "Arial"
				}

			}
, 			{
				"box" : 				{
					"maxclass" : "newobj",
					"text" : "cmh B 36",
					"outlettype" : [ "int" ],
					"patching_rect" : [ 210.0, 630.0, 61.0, 20.0 ],
					"id" : "obj-62",
					"fontsize" : 12.0,
					"numinlets" : 1,
					"numoutlets" : 1,
					"fontname" : "Arial"
				}

			}
, 			{
				"box" : 				{
					"maxclass" : "newobj",
					"text" : "cmh B 35",
					"outlettype" : [ "int" ],
					"patching_rect" : [ 120.0, 630.0, 61.0, 20.0 ],
					"id" : "obj-61",
					"fontsize" : 12.0,
					"numinlets" : 1,
					"numoutlets" : 1,
					"fontname" : "Arial"
				}

			}
, 			{
				"box" : 				{
					"maxclass" : "newobj",
					"text" : "cmh B 34",
					"outlettype" : [ "int" ],
					"patching_rect" : [ 30.0, 630.0, 61.0, 20.0 ],
					"id" : "obj-60",
					"fontsize" : 12.0,
					"numinlets" : 1,
					"numoutlets" : 1,
					"fontname" : "Arial"
				}

			}
, 			{
				"box" : 				{
					"maxclass" : "newobj",
					"text" : "cmh A 100 64",
					"outlettype" : [ "int" ],
					"patching_rect" : [ 300.0, 495.0, 83.0, 20.0 ],
					"id" : "obj-59",
					"fontsize" : 12.0,
					"numinlets" : 1,
					"numoutlets" : 1,
					"fontname" : "Arial"
				}

			}
, 			{
				"box" : 				{
					"maxclass" : "newobj",
					"text" : "cmh A 99",
					"outlettype" : [ "int" ],
					"patching_rect" : [ 210.0, 495.0, 60.0, 20.0 ],
					"id" : "obj-53",
					"fontsize" : 12.0,
					"numinlets" : 1,
					"numoutlets" : 1,
					"fontname" : "Arial"
				}

			}
, 			{
				"box" : 				{
					"maxclass" : "newobj",
					"text" : "cmh A 98",
					"outlettype" : [ "int" ],
					"patching_rect" : [ 120.0, 495.0, 60.0, 20.0 ],
					"id" : "obj-52",
					"fontsize" : 12.0,
					"numinlets" : 1,
					"numoutlets" : 1,
					"fontname" : "Arial"
				}

			}
, 			{
				"box" : 				{
					"maxclass" : "newobj",
					"text" : "cmh A 97",
					"outlettype" : [ "int" ],
					"patching_rect" : [ 30.0, 495.0, 60.0, 20.0 ],
					"id" : "obj-51",
					"fontsize" : 12.0,
					"numinlets" : 1,
					"numoutlets" : 1,
					"fontname" : "Arial"
				}

			}
, 			{
				"box" : 				{
					"maxclass" : "newobj",
					"text" : "cmh A 39 64",
					"outlettype" : [ "int" ],
					"patching_rect" : [ 870.0, 300.0, 77.0, 20.0 ],
					"id" : "obj-50",
					"fontsize" : 12.0,
					"numinlets" : 1,
					"numoutlets" : 1,
					"fontname" : "Arial"
				}

			}
, 			{
				"box" : 				{
					"maxclass" : "newobj",
					"text" : "cmh A 38",
					"outlettype" : [ "int" ],
					"patching_rect" : [ 720.0, 300.0, 60.0, 20.0 ],
					"id" : "obj-49",
					"fontsize" : 12.0,
					"numinlets" : 1,
					"numoutlets" : 1,
					"fontname" : "Arial"
				}

			}
, 			{
				"box" : 				{
					"maxclass" : "newobj",
					"text" : "cmh A 37",
					"outlettype" : [ "int" ],
					"patching_rect" : [ 570.0, 300.0, 60.0, 20.0 ],
					"id" : "obj-48",
					"fontsize" : 12.0,
					"numinlets" : 1,
					"numoutlets" : 1,
					"fontname" : "Arial"
				}

			}
, 			{
				"box" : 				{
					"maxclass" : "newobj",
					"text" : "cmh A 36 64",
					"outlettype" : [ "int" ],
					"patching_rect" : [ 420.0, 300.0, 77.0, 20.0 ],
					"id" : "obj-47",
					"fontsize" : 12.0,
					"numinlets" : 1,
					"numoutlets" : 1,
					"fontname" : "Arial"
				}

			}
, 			{
				"box" : 				{
					"maxclass" : "newobj",
					"text" : "cmh A 35",
					"outlettype" : [ "int" ],
					"patching_rect" : [ 330.0, 300.0, 60.0, 20.0 ],
					"id" : "obj-46",
					"fontsize" : 12.0,
					"numinlets" : 1,
					"numoutlets" : 1,
					"fontname" : "Arial"
				}

			}
, 			{
				"box" : 				{
					"maxclass" : "newobj",
					"text" : "cmh A 34",
					"outlettype" : [ "int" ],
					"patching_rect" : [ 180.0, 300.0, 60.0, 20.0 ],
					"id" : "obj-43",
					"fontsize" : 12.0,
					"numinlets" : 1,
					"numoutlets" : 1,
					"fontname" : "Arial"
				}

			}
, 			{
				"box" : 				{
					"maxclass" : "newobj",
					"text" : "cmh A 33 64",
					"outlettype" : [ "int" ],
					"patching_rect" : [ 30.0, 300.0, 77.0, 20.0 ],
					"id" : "obj-36",
					"fontsize" : 12.0,
					"numinlets" : 1,
					"numoutlets" : 1,
					"fontname" : "Arial"
				}

			}
, 			{
				"box" : 				{
					"maxclass" : "newobj",
					"text" : "cmh A 31 64",
					"outlettype" : [ "int" ],
					"patching_rect" : [ 1410.0, 180.0, 77.0, 20.0 ],
					"id" : "obj-32",
					"fontsize" : 12.0,
					"numinlets" : 1,
					"numoutlets" : 1,
					"fontname" : "Arial"
				}

			}
, 			{
				"box" : 				{
					"maxclass" : "newobj",
					"text" : "cmh A 30 64",
					"outlettype" : [ "int" ],
					"patching_rect" : [ 1305.0, 180.0, 77.0, 20.0 ],
					"id" : "obj-17",
					"fontsize" : 12.0,
					"numinlets" : 1,
					"numoutlets" : 1,
					"fontname" : "Arial"
				}

			}
, 			{
				"box" : 				{
					"maxclass" : "newobj",
					"text" : "cmh A 29 64",
					"outlettype" : [ "int" ],
					"patching_rect" : [ 1200.0, 180.0, 77.0, 20.0 ],
					"id" : "obj-15",
					"fontsize" : 12.0,
					"numinlets" : 1,
					"numoutlets" : 1,
					"fontname" : "Arial"
				}

			}
, 			{
				"box" : 				{
					"maxclass" : "newobj",
					"text" : "cmh A 28",
					"outlettype" : [ "int" ],
					"patching_rect" : [ 1095.0, 180.0, 60.0, 20.0 ],
					"id" : "obj-14",
					"fontsize" : 12.0,
					"numinlets" : 1,
					"numoutlets" : 1,
					"fontname" : "Arial"
				}

			}
, 			{
				"box" : 				{
					"maxclass" : "newobj",
					"text" : "cmh A 27",
					"outlettype" : [ "int" ],
					"patching_rect" : [ 1005.0, 180.0, 60.0, 20.0 ],
					"id" : "obj-10",
					"fontsize" : 12.0,
					"numinlets" : 1,
					"numoutlets" : 1,
					"fontname" : "Arial"
				}

			}
, 			{
				"box" : 				{
					"maxclass" : "newobj",
					"text" : "cmh A 26",
					"outlettype" : [ "int" ],
					"patching_rect" : [ 915.0, 180.0, 60.0, 20.0 ],
					"id" : "obj-6",
					"fontsize" : 12.0,
					"numinlets" : 1,
					"numoutlets" : 1,
					"fontname" : "Arial"
				}

			}
, 			{
				"box" : 				{
					"maxclass" : "newobj",
					"text" : "cmh A 25 64",
					"outlettype" : [ "int" ],
					"patching_rect" : [ 810.0, 180.0, 77.0, 20.0 ],
					"id" : "obj-4",
					"fontsize" : 12.0,
					"numinlets" : 1,
					"numoutlets" : 1,
					"fontname" : "Arial"
				}

			}
, 			{
				"box" : 				{
					"maxclass" : "newobj",
					"text" : "cmh A 24",
					"outlettype" : [ "int" ],
					"patching_rect" : [ 720.0, 180.0, 60.0, 20.0 ],
					"id" : "obj-3",
					"fontsize" : 12.0,
					"numinlets" : 1,
					"numoutlets" : 1,
					"fontname" : "Arial"
				}

			}
, 			{
				"box" : 				{
					"maxclass" : "newobj",
					"text" : "cmh A 23",
					"outlettype" : [ "int" ],
					"patching_rect" : [ 630.0, 180.0, 60.0, 20.0 ],
					"id" : "obj-1",
					"fontsize" : 12.0,
					"numinlets" : 1,
					"numoutlets" : 1,
					"fontname" : "Arial"
				}

			}
, 			{
				"box" : 				{
					"maxclass" : "newobj",
					"text" : "cmh A 22 64",
					"outlettype" : [ "int" ],
					"patching_rect" : [ 525.0, 180.0, 77.0, 20.0 ],
					"id" : "obj-222",
					"fontsize" : 12.0,
					"numinlets" : 1,
					"numoutlets" : 1,
					"fontname" : "Arial"
				}

			}
, 			{
				"box" : 				{
					"maxclass" : "newobj",
					"text" : "cmh A 21 64",
					"outlettype" : [ "int" ],
					"patching_rect" : [ 420.0, 180.0, 77.0, 20.0 ],
					"id" : "obj-221",
					"fontsize" : 12.0,
					"numinlets" : 1,
					"numoutlets" : 1,
					"fontname" : "Arial"
				}

			}
, 			{
				"box" : 				{
					"maxclass" : "newobj",
					"text" : "cmh A 20 64",
					"outlettype" : [ "int" ],
					"patching_rect" : [ 315.0, 180.0, 77.0, 20.0 ],
					"id" : "obj-219",
					"fontsize" : 12.0,
					"numinlets" : 1,
					"numoutlets" : 1,
					"fontname" : "Arial"
				}

			}
, 			{
				"box" : 				{
					"maxclass" : "newobj",
					"text" : "cmh A 18",
					"outlettype" : [ "int" ],
					"patching_rect" : [ 135.0, 180.0, 60.0, 20.0 ],
					"id" : "obj-218",
					"fontsize" : 12.0,
					"numinlets" : 1,
					"numoutlets" : 1,
					"fontname" : "Arial"
				}

			}
, 			{
				"box" : 				{
					"maxclass" : "newobj",
					"text" : "cmh A 17 64",
					"outlettype" : [ "int" ],
					"patching_rect" : [ 30.0, 180.0, 77.0, 20.0 ],
					"id" : "obj-217",
					"fontsize" : 12.0,
					"numinlets" : 1,
					"numoutlets" : 1,
					"fontname" : "Arial"
				}

			}
, 			{
				"box" : 				{
					"maxclass" : "newobj",
					"text" : "cmh A 19",
					"outlettype" : [ "int" ],
					"patching_rect" : [ 225.0, 180.0, 60.0, 20.0 ],
					"id" : "obj-216",
					"fontsize" : 12.0,
					"numinlets" : 1,
					"numoutlets" : 1,
					"fontname" : "Arial"
				}

			}
, 			{
				"box" : 				{
					"maxclass" : "comment",
					"text" : "Sub Osc",
					"patching_rect" : [ 213.0, 8.0, 150.0, 20.0 ],
					"presentation" : 1,
					"id" : "obj-2",
					"fontsize" : 12.0,
					"numinlets" : 1,
					"presentation_rect" : [ 35.0, 178.0, 57.0, 20.0 ],
					"numoutlets" : 0,
					"fontname" : "Arial"
				}

			}
, 			{
				"box" : 				{
					"maxclass" : "live.slider",
					"varname" : "Ringmodulator Volume",
					"outlettype" : [ "", "float" ],
					"patching_rect" : [ 720.0, 330.0, 118.0, 27.0 ],
					"presentation" : 1,
					"id" : "obj-132",
					"shownumber" : 0,
					"parameter_enable" : 1,
					"orientation" : 1,
					"numinlets" : 1,
					"presentation_rect" : [ 520.0, 370.0, 133.0, 27.0 ],
					"numoutlets" : 2,
					"saved_attribute_attributes" : 					{
						"valueof" : 						{
							"parameter_speedlim" : 1.0,
							"parameter_invisible" : 0,
							"parameter_steps" : 0,
							"parameter_annotation_name" : "",
							"parameter_exponent" : 1.0,
							"parameter_unitstyle" : 0,
							"parameter_mmax" : 127.0,
							"parameter_mmin" : 0.0,
							"parameter_type" : 0,
							"parameter_initial_enable" : 0,
							"parameter_shortname" : "Ring Modulator",
							"parameter_modmax" : 127.0,
							"parameter_longname" : "Ringmodulator Volume",
							"parameter_modmin" : 0.0,
							"parameter_linknames" : 1,
							"parameter_modmode" : 4,
							"parameter_info" : "",
							"parameter_units" : "",
							"parameter_order" : 0,
							"parameter_defer" : 0
						}

					}

				}

			}
, 			{
				"box" : 				{
					"maxclass" : "live.slider",
					"varname" : "Noise Volume",
					"outlettype" : [ "", "float" ],
					"patching_rect" : [ 570.0, 330.0, 118.0, 27.0 ],
					"presentation" : 1,
					"id" : "obj-127",
					"shownumber" : 0,
					"parameter_enable" : 1,
					"orientation" : 1,
					"numinlets" : 1,
					"presentation_rect" : [ 520.0, 325.0, 133.0, 27.0 ],
					"numoutlets" : 2,
					"saved_attribute_attributes" : 					{
						"valueof" : 						{
							"parameter_speedlim" : 1.0,
							"parameter_invisible" : 0,
							"parameter_steps" : 0,
							"parameter_annotation_name" : "",
							"parameter_exponent" : 1.0,
							"parameter_unitstyle" : 0,
							"parameter_mmax" : 127.0,
							"parameter_mmin" : 0.0,
							"parameter_type" : 0,
							"parameter_initial_enable" : 0,
							"parameter_shortname" : "Noise",
							"parameter_modmax" : 127.0,
							"parameter_longname" : "Noise Volume",
							"parameter_modmin" : 0.0,
							"parameter_linknames" : 1,
							"parameter_modmode" : 4,
							"parameter_info" : "",
							"parameter_units" : "",
							"parameter_order" : 0,
							"parameter_defer" : 0
						}

					}

				}

			}
, 			{
				"box" : 				{
					"maxclass" : "live.slider",
					"varname" : "Osc Mainvolume",
					"outlettype" : [ "", "float" ],
					"patching_rect" : [ 420.0, 330.0, 118.0, 27.0 ],
					"presentation" : 1,
					"id" : "obj-126",
					"shownumber" : 0,
					"parameter_enable" : 1,
					"orientation" : 1,
					"numinlets" : 1,
					"presentation_rect" : [ 520.0, 280.0, 133.0, 27.0 ],
					"numoutlets" : 2,
					"saved_attribute_attributes" : 					{
						"valueof" : 						{
							"parameter_speedlim" : 1.0,
							"parameter_invisible" : 0,
							"parameter_steps" : 0,
							"parameter_annotation_name" : "",
							"parameter_exponent" : 1.0,
							"parameter_unitstyle" : 0,
							"parameter_mmax" : 63.0,
							"parameter_mmin" : -64.0,
							"parameter_type" : 0,
							"parameter_initial_enable" : 0,
							"parameter_shortname" : "Osc Vol     Saturation",
							"parameter_modmax" : 63.0,
							"parameter_longname" : "Osc Mainvolume",
							"parameter_modmin" : -64.0,
							"parameter_linknames" : 1,
							"parameter_modmode" : 4,
							"parameter_info" : "",
							"parameter_units" : "",
							"parameter_order" : 0,
							"parameter_defer" : 0
						}

					}

				}

			}
, 			{
				"box" : 				{
					"maxclass" : "live.slider",
					"varname" : "Suboscillator Volume",
					"outlettype" : [ "", "float" ],
					"patching_rect" : [ 180.0, 330.0, 118.0, 27.0 ],
					"presentation" : 1,
					"id" : "obj-40",
					"shownumber" : 0,
					"parameter_enable" : 1,
					"orientation" : 1,
					"numinlets" : 1,
					"presentation_rect" : [ 335.0, 370.0, 133.0, 27.0 ],
					"numoutlets" : 2,
					"saved_attribute_attributes" : 					{
						"valueof" : 						{
							"parameter_speedlim" : 1.0,
							"parameter_invisible" : 0,
							"parameter_steps" : 0,
							"parameter_annotation_name" : "",
							"parameter_exponent" : 1.0,
							"parameter_unitstyle" : 0,
							"parameter_mmax" : 127.0,
							"parameter_mmin" : 0.0,
							"parameter_type" : 0,
							"parameter_initial_enable" : 0,
							"parameter_shortname" : "Sub Osc",
							"parameter_modmax" : 127.0,
							"parameter_longname" : "Suboscillator Volume",
							"parameter_modmin" : 0.0,
							"parameter_linknames" : 1,
							"parameter_modmode" : 4,
							"parameter_info" : "",
							"parameter_units" : "",
							"parameter_order" : 0,
							"parameter_defer" : 0
						}

					}

				}

			}
, 			{
				"box" : 				{
					"maxclass" : "live.slider",
					"varname" : "Osc3 Volume",
					"outlettype" : [ "", "float" ],
					"patching_rect" : [ 405.0, 660.0, 118.0, 27.0 ],
					"presentation" : 1,
					"id" : "obj-7",
					"shownumber" : 0,
					"parameter_enable" : 1,
					"orientation" : 1,
					"numinlets" : 1,
					"presentation_rect" : [ 335.0, 325.0, 133.0, 27.0 ],
					"numoutlets" : 2,
					"saved_attribute_attributes" : 					{
						"valueof" : 						{
							"parameter_speedlim" : 1.0,
							"parameter_invisible" : 0,
							"parameter_steps" : 0,
							"parameter_annotation_name" : "",
							"parameter_exponent" : 1.0,
							"parameter_unitstyle" : 0,
							"parameter_mmax" : 127.0,
							"parameter_mmin" : 0.0,
							"parameter_type" : 0,
							"parameter_initial_enable" : 0,
							"parameter_shortname" : "OSC 3",
							"parameter_modmax" : 127.0,
							"parameter_longname" : "Osc3 Volume",
							"parameter_modmin" : 0.0,
							"parameter_linknames" : 1,
							"parameter_modmode" : 4,
							"parameter_info" : "",
							"parameter_units" : "",
							"parameter_order" : 0,
							"parameter_defer" : 0
						}

					}

				}

			}
, 			{
				"box" : 				{
					"maxclass" : "live.slider",
					"varname" : "Osc 1/2 Balance",
					"outlettype" : [ "", "float" ],
					"patching_rect" : [ 30.0, 330.0, 118.0, 27.0 ],
					"presentation" : 1,
					"id" : "obj-202",
					"shownumber" : 0,
					"parameter_enable" : 1,
					"orientation" : 1,
					"numinlets" : 1,
					"presentation_rect" : [ 335.0, 280.0, 133.0, 27.0 ],
					"numoutlets" : 2,
					"saved_attribute_attributes" : 					{
						"valueof" : 						{
							"parameter_speedlim" : 1.0,
							"parameter_invisible" : 0,
							"parameter_steps" : 0,
							"parameter_annotation_name" : "",
							"parameter_exponent" : 1.0,
							"parameter_unitstyle" : 0,
							"parameter_mmax" : 63.0,
							"parameter_mmin" : -64.0,
							"parameter_type" : 0,
							"parameter_initial_enable" : 0,
							"parameter_shortname" : "Osc 1/2 Balance",
							"parameter_modmax" : 63.0,
							"parameter_longname" : "Osc 1/2 Balance",
							"parameter_modmin" : -64.0,
							"parameter_linknames" : 1,
							"parameter_modmode" : 4,
							"parameter_info" : "",
							"parameter_units" : "",
							"parameter_order" : 0,
							"parameter_defer" : 0
						}

					}

				}

			}
, 			{
				"box" : 				{
					"maxclass" : "comment",
					"text" : "Punch",
					"patching_rect" : [ 557.0, 36.0, 55.0, 20.0 ],
					"presentation" : 1,
					"id" : "obj-79",
					"fontsize" : 12.0,
					"numinlets" : 1,
					"presentation_rect" : [ 246.0, 311.0, 55.0, 20.0 ],
					"numoutlets" : 0,
					"fontname" : "Arial"
				}

			}
, 			{
				"box" : 				{
					"maxclass" : "live.dial",
					"varname" : "Punch Intensity",
					"outlettype" : [ "", "float" ],
					"patching_rect" : [ 210.0, 660.0, 44.0, 47.0 ],
					"presentation" : 1,
					"id" : "obj-80",
					"parameter_enable" : 1,
					"numinlets" : 1,
					"presentation_rect" : [ 244.0, 337.0, 44.0, 47.0 ],
					"numoutlets" : 2,
					"saved_attribute_attributes" : 					{
						"valueof" : 						{
							"parameter_speedlim" : 1.0,
							"parameter_invisible" : 0,
							"parameter_steps" : 0,
							"parameter_annotation_name" : "",
							"parameter_exponent" : 1.0,
							"parameter_unitstyle" : 0,
							"parameter_mmax" : 127.0,
							"parameter_mmin" : 0.0,
							"parameter_type" : 0,
							"parameter_initial_enable" : 0,
							"parameter_shortname" : "Intensity",
							"parameter_modmax" : 127.0,
							"parameter_longname" : "Punch Intensity",
							"parameter_modmin" : 0.0,
							"parameter_linknames" : 1,
							"parameter_modmode" : 4,
							"parameter_info" : "",
							"parameter_units" : "",
							"parameter_order" : 0,
							"parameter_defer" : 0
						}

					}

				}

			}
, 			{
				"box" : 				{
					"maxclass" : "live.dial",
					"varname" : "Unison LFO Phase",
					"outlettype" : [ "", "float" ],
					"patching_rect" : [ 300.0, 525.0, 44.0, 47.0 ],
					"presentation" : 1,
					"id" : "obj-78",
					"parameter_enable" : 1,
					"numinlets" : 1,
					"presentation_rect" : [ 182.0, 357.0, 44.0, 47.0 ],
					"numoutlets" : 2,
					"saved_attribute_attributes" : 					{
						"valueof" : 						{
							"parameter_speedlim" : 1.0,
							"parameter_invisible" : 0,
							"parameter_steps" : 0,
							"parameter_annotation_name" : "",
							"parameter_exponent" : 1.0,
							"parameter_unitstyle" : 0,
							"parameter_mmax" : 63.0,
							"parameter_mmin" : -64.0,
							"parameter_type" : 0,
							"parameter_initial_enable" : 0,
							"parameter_shortname" : "LFO Phase",
							"parameter_modmax" : 63.0,
							"parameter_longname" : "Unison LFO Phase",
							"parameter_modmin" : -64.0,
							"parameter_linknames" : 1,
							"parameter_modmode" : 4,
							"parameter_info" : "",
							"parameter_units" : "",
							"parameter_order" : 0,
							"parameter_defer" : 0
						}

					}

				}

			}
, 			{
				"box" : 				{
					"maxclass" : "live.dial",
					"varname" : "Unison Pan Spread",
					"outlettype" : [ "", "float" ],
					"patching_rect" : [ 210.0, 525.0, 60.0, 47.0 ],
					"presentation" : 1,
					"id" : "obj-77",
					"parameter_enable" : 1,
					"numinlets" : 1,
					"presentation_rect" : [ 110.0, 357.0, 60.0, 47.0 ],
					"numoutlets" : 2,
					"saved_attribute_attributes" : 					{
						"valueof" : 						{
							"parameter_speedlim" : 1.0,
							"parameter_invisible" : 0,
							"parameter_steps" : 0,
							"parameter_annotation_name" : "",
							"parameter_exponent" : 1.0,
							"parameter_unitstyle" : 0,
							"parameter_mmax" : 127.0,
							"parameter_mmin" : 0.0,
							"parameter_type" : 0,
							"parameter_initial_enable" : 0,
							"parameter_shortname" : "Pan Spread",
							"parameter_modmax" : 127.0,
							"parameter_longname" : "Unison Pan Spread",
							"parameter_modmin" : 0.0,
							"parameter_linknames" : 1,
							"parameter_modmode" : 4,
							"parameter_info" : "",
							"parameter_units" : "",
							"parameter_order" : 0,
							"parameter_defer" : 0
						}

					}

				}

			}
, 			{
				"box" : 				{
					"maxclass" : "live.dial",
					"varname" : "Unison Detune",
					"outlettype" : [ "", "float" ],
					"patching_rect" : [ 120.0, 525.0, 50.0, 47.0 ],
					"presentation" : 1,
					"id" : "obj-75",
					"parameter_enable" : 1,
					"numinlets" : 1,
					"presentation_rect" : [ 62.0, 357.0, 50.0, 47.0 ],
					"numoutlets" : 2,
					"saved_attribute_attributes" : 					{
						"valueof" : 						{
							"parameter_speedlim" : 1.0,
							"parameter_invisible" : 0,
							"parameter_steps" : 0,
							"parameter_annotation_name" : "",
							"parameter_exponent" : 1.0,
							"parameter_unitstyle" : 0,
							"parameter_mmax" : 127.0,
							"parameter_mmin" : 0.0,
							"parameter_type" : 0,
							"parameter_initial_enable" : 0,
							"parameter_shortname" : "UniDetune",
							"parameter_modmax" : 127.0,
							"parameter_longname" : "Unison Detune",
							"parameter_modmin" : 0.0,
							"parameter_linknames" : 1,
							"parameter_modmode" : 4,
							"parameter_info" : "",
							"parameter_units" : "",
							"parameter_order" : 0,
							"parameter_defer" : 0
						}

					}

				}

			}
, 			{
				"box" : 				{
					"maxclass" : "live.menu",
					"varname" : "Unison Mode",
					"outlettype" : [ "", "", "float" ],
					"patching_rect" : [ 30.0, 525.0, 53.0, 15.0 ],
					"presentation" : 1,
					"id" : "obj-74",
					"parameter_enable" : 1,
					"pictures" : [  ],
					"numinlets" : 1,
					"presentation_rect" : [ 9.0, 366.0, 53.0, 15.0 ],
					"numoutlets" : 3,
					"saved_attribute_attributes" : 					{
						"valueof" : 						{
							"parameter_speedlim" : 1.0,
							"parameter_invisible" : 0,
							"parameter_steps" : 0,
							"parameter_annotation_name" : "",
							"parameter_enum" : [ "Off", "Twin", "3", "4", "5", "6", "7", "8", "9", "10", "11", "12", "13", "14", "15", "16" ],
							"parameter_exponent" : 1.0,
							"parameter_unitstyle" : 10,
							"parameter_mmax" : 127.0,
							"parameter_mmin" : 0.0,
							"parameter_type" : 2,
							"parameter_initial_enable" : 0,
							"parameter_shortname" : "UnisonMode",
							"parameter_modmax" : 127.0,
							"parameter_longname" : "Unison Mode",
							"parameter_modmin" : 0.0,
							"parameter_linknames" : 1,
							"parameter_modmode" : 0,
							"parameter_info" : "",
							"parameter_units" : "",
							"parameter_order" : 0,
							"parameter_defer" : 0
						}

					}

				}

			}
, 			{
				"box" : 				{
					"maxclass" : "comment",
					"text" : "unison",
					"patching_rect" : [ 634.0, 11.0, 150.0, 20.0 ],
					"presentation" : 1,
					"id" : "obj-72",
					"fontsize" : 12.0,
					"numinlets" : 1,
					"presentation_rect" : [ 33.0, 334.0, 150.0, 20.0 ],
					"numoutlets" : 0,
					"fontname" : "Arial"
				}

			}
, 			{
				"box" : 				{
					"maxclass" : "comment",
					"text" : "noise",
					"patching_rect" : [ 550.0, 8.0, 55.0, 20.0 ],
					"presentation" : 1,
					"id" : "obj-68",
					"fontsize" : 12.0,
					"numinlets" : 1,
					"presentation_rect" : [ 249.0, 237.0, 55.0, 20.0 ],
					"numoutlets" : 0,
					"fontname" : "Arial"
				}

			}
, 			{
				"box" : 				{
					"maxclass" : "comment",
					"text" : "Oscillator 3",
					"patching_rect" : [ 632.0, 38.0, 150.0, 20.0 ],
					"presentation" : 1,
					"id" : "obj-45",
					"fontsize" : 12.0,
					"numinlets" : 1,
					"presentation_rect" : [ 33.0, 231.0, 150.0, 20.0 ],
					"numoutlets" : 0,
					"fontname" : "Arial"
				}

			}
, 			{
				"box" : 				{
					"maxclass" : "comment",
					"text" : "FM",
					"patching_rect" : [ 824.0, 13.0, 34.0, 20.0 ],
					"presentation" : 1,
					"id" : "obj-44",
					"fontsize" : 12.0,
					"numinlets" : 1,
					"presentation_rect" : [ 327.0, 129.0, 34.0, 20.0 ],
					"numoutlets" : 0,
					"fontname" : "Arial"
				}

			}
, 			{
				"box" : 				{
					"maxclass" : "live.dial",
					"varname" : "Portamento Time",
					"outlettype" : [ "", "float" ],
					"patching_rect" : [ 30.0, 105.0, 44.0, 47.0 ],
					"presentation" : 1,
					"id" : "obj-42",
					"parameter_enable" : 1,
					"numinlets" : 1,
					"presentation_rect" : [ 359.0, 76.0, 44.0, 47.0 ],
					"numoutlets" : 2,
					"saved_attribute_attributes" : 					{
						"valueof" : 						{
							"parameter_speedlim" : 1.0,
							"parameter_invisible" : 0,
							"parameter_steps" : 0,
							"parameter_annotation_name" : "",
							"parameter_exponent" : 1.0,
							"parameter_unitstyle" : 0,
							"parameter_mmax" : 127.0,
							"parameter_mmin" : 0.0,
							"parameter_type" : 0,
							"parameter_initial_enable" : 0,
							"parameter_shortname" : "Porta",
							"parameter_modmax" : 127.0,
							"parameter_longname" : "Portamento Time",
							"parameter_modmin" : 0.0,
							"parameter_linknames" : 1,
							"parameter_modmode" : 4,
							"parameter_info" : "",
							"parameter_units" : "",
							"parameter_order" : 0,
							"parameter_defer" : 0
						}

					}

				}

			}
, 			{
				"box" : 				{
					"maxclass" : "comment",
					"text" : "Sync 1+2",
					"patching_rect" : [ 1110.0, 210.0, 68.0, 20.0 ],
					"presentation" : 1,
					"id" : "obj-41",
					"fontsize" : 12.0,
					"numinlets" : 1,
					"presentation_rect" : [ 292.0, 30.0, 68.0, 20.0 ],
					"numoutlets" : 0,
					"fontname" : "Arial"
				}

			}
, 			{
				"box" : 				{
					"maxclass" : "comment",
					"text" : "Oscillator 2",
					"patching_rect" : [ 50.0, 36.0, 150.0, 20.0 ],
					"presentation" : 1,
					"id" : "obj-39",
					"fontsize" : 12.0,
					"numinlets" : 1,
					"presentation_rect" : [ 490.0, 2.0, 150.0, 20.0 ],
					"numoutlets" : 0,
					"fontname" : "Arial"
				}

			}
, 			{
				"box" : 				{
					"maxclass" : "comment",
					"text" : "Mixer",
					"patching_rect" : [ 385.0, 34.0, 150.0, 20.0 ],
					"presentation" : 1,
					"id" : "obj-154",
					"fontsize" : 12.0,
					"numinlets" : 1,
					"presentation_rect" : [ 440.0, 240.0, 150.0, 20.0 ],
					"numoutlets" : 0,
					"fontname" : "Arial"
				}

			}
, 			{
				"box" : 				{
					"maxclass" : "comment",
					"text" : "Oscillator 1",
					"patching_rect" : [ 49.0, 6.0, 150.0, 20.0 ],
					"presentation" : 1,
					"id" : "obj-148",
					"fontsize" : 12.0,
					"numinlets" : 1,
					"presentation_rect" : [ 75.0, 0.0, 85.0, 20.0 ],
					"numoutlets" : 0,
					"fontname" : "Arial"
				}

			}
, 			{
				"box" : 				{
					"maxclass" : "comment",
					"text" : "Oscillator Common",
					"patching_rect" : [ 382.0, 6.0, 150.0, 20.0 ],
					"presentation" : 1,
					"id" : "obj-146",
					"fontsize" : 12.0,
					"numinlets" : 1,
					"presentation_rect" : [ 273.0, 0.0, 150.0, 20.0 ],
					"numoutlets" : 0,
					"fontname" : "Arial"
				}

			}
, 			{
				"box" : 				{
					"maxclass" : "live.dial",
					"varname" : "Velocity > FM Amount",
					"outlettype" : [ "", "float" ],
					"patching_rect" : [ 1050.0, 660.0, 44.0, 47.0 ],
					"presentation" : 1,
					"id" : "obj-129",
					"parameter_enable" : 1,
					"numinlets" : 1,
					"presentation_rect" : [ 366.0, 155.0, 44.0, 47.0 ],
					"numoutlets" : 2,
					"saved_attribute_attributes" : 					{
						"valueof" : 						{
							"parameter_speedlim" : 1.0,
							"parameter_invisible" : 0,
							"parameter_steps" : 0,
							"parameter_annotation_name" : "",
							"parameter_exponent" : 1.0,
							"parameter_unitstyle" : 0,
							"parameter_mmax" : 63.0,
							"parameter_mmin" : -64.0,
							"parameter_type" : 0,
							"parameter_initial_enable" : 0,
							"parameter_shortname" : "Vel>FM",
							"parameter_modmax" : 63.0,
							"parameter_longname" : "Velocity > FM Amount",
							"parameter_modmin" : -64.0,
							"parameter_linknames" : 1,
							"parameter_modmode" : 4,
							"parameter_info" : "",
							"parameter_units" : "",
							"parameter_order" : 0,
							"parameter_defer" : 0
						}

					}

				}

			}
, 			{
				"box" : 				{
					"maxclass" : "live.dial",
					"varname" : "Velocity > PW",
					"outlettype" : [ "", "float" ],
					"patching_rect" : [ 945.0, 660.0, 44.0, 47.0 ],
					"presentation" : 1,
					"id" : "obj-128",
					"parameter_enable" : 1,
					"numinlets" : 1,
					"presentation_rect" : [ 322.0, 75.0, 44.0, 47.0 ],
					"numoutlets" : 2,
					"saved_attribute_attributes" : 					{
						"valueof" : 						{
							"parameter_speedlim" : 1.0,
							"parameter_invisible" : 0,
							"parameter_steps" : 0,
							"parameter_annotation_name" : "",
							"parameter_exponent" : 1.0,
							"parameter_unitstyle" : 0,
							"parameter_mmax" : 63.0,
							"parameter_mmin" : -64.0,
							"parameter_type" : 0,
							"parameter_initial_enable" : 0,
							"parameter_shortname" : "Vel>PW",
							"parameter_modmax" : 63.0,
							"parameter_longname" : "Velocity > PW",
							"parameter_modmin" : -64.0,
							"parameter_linknames" : 1,
							"parameter_modmode" : 4,
							"parameter_info" : "",
							"parameter_units" : "",
							"parameter_order" : 0,
							"parameter_defer" : 0
						}

					}

				}

			}
, 			{
				"box" : 				{
					"maxclass" : "live.dial",
					"varname" : "FM Filter Env Amount",
					"outlettype" : [ "", "float" ],
					"patching_rect" : [ 1305.0, 210.0, 44.0, 47.0 ],
					"presentation" : 1,
					"id" : "obj-122",
					"parameter_enable" : 1,
					"numinlets" : 1,
					"presentation_rect" : [ 326.0, 155.0, 44.0, 47.0 ],
					"numoutlets" : 2,
					"saved_attribute_attributes" : 					{
						"valueof" : 						{
							"parameter_speedlim" : 1.0,
							"parameter_invisible" : 0,
							"parameter_steps" : 0,
							"parameter_annotation_name" : "",
							"parameter_exponent" : 1.0,
							"parameter_unitstyle" : 0,
							"parameter_mmax" : 63.0,
							"parameter_mmin" : -64.0,
							"parameter_type" : 0,
							"parameter_initial_enable" : 0,
							"parameter_shortname" : "Env>FM",
							"parameter_modmax" : 63.0,
							"parameter_longname" : "FM Filter Env Amount",
							"parameter_modmin" : -64.0,
							"parameter_linknames" : 1,
							"parameter_modmode" : 4,
							"parameter_info" : "",
							"parameter_units" : "",
							"parameter_order" : 0,
							"parameter_defer" : 0
						}

					}

				}

			}
, 			{
				"box" : 				{
					"maxclass" : "live.dial",
					"varname" : "Osc2 Filter Env Amount",
					"outlettype" : [ "", "float" ],
					"patching_rect" : [ 1200.0, 210.0, 51.0, 47.0 ],
					"presentation" : 1,
					"id" : "obj-121",
					"parameter_enable" : 1,
					"numinlets" : 1,
					"presentation_rect" : [ 359.0, 24.0, 51.0, 47.0 ],
					"numoutlets" : 2,
					"saved_attribute_attributes" : 					{
						"valueof" : 						{
							"parameter_speedlim" : 1.0,
							"parameter_invisible" : 0,
							"parameter_steps" : 0,
							"parameter_annotation_name" : "",
							"parameter_exponent" : 1.0,
							"parameter_unitstyle" : 0,
							"parameter_mmax" : 63.0,
							"parameter_mmin" : -64.0,
							"parameter_type" : 0,
							"parameter_initial_enable" : 0,
							"parameter_shortname" : "Env>Osc2",
							"parameter_modmax" : 63.0,
							"parameter_longname" : "Osc2 Filter Env Amount",
							"parameter_modmin" : -64.0,
							"parameter_linknames" : 1,
							"parameter_modmode" : 4,
							"parameter_info" : "",
							"parameter_units" : "",
							"parameter_order" : 0,
							"parameter_defer" : 0
						}

					}

				}

			}
, 			{
				"box" : 				{
					"maxclass" : "live.dial",
					"varname" : "Osc Init Phase",
					"outlettype" : [ "", "float" ],
					"patching_rect" : [ 120.0, 660.0, 50.0, 47.0 ],
					"presentation" : 1,
					"id" : "obj-38",
					"parameter_enable" : 1,
					"numinlets" : 1,
					"presentation_rect" : [ 281.0, 76.0, 50.0, 47.0 ],
					"numoutlets" : 2,
					"saved_attribute_attributes" : 					{
						"valueof" : 						{
							"parameter_speedlim" : 1.0,
							"parameter_invisible" : 0,
							"parameter_steps" : 0,
							"parameter_annotation_name" : "",
							"parameter_exponent" : 1.0,
							"parameter_unitstyle" : 0,
							"parameter_mmax" : 127.0,
							"parameter_mmin" : 0.0,
							"parameter_type" : 0,
							"parameter_initial_enable" : 0,
							"parameter_shortname" : "Phase Init",
							"parameter_modmax" : 127.0,
							"parameter_longname" : "Osc Init Phase",
							"parameter_modmin" : 0.0,
							"parameter_linknames" : 1,
							"parameter_modmode" : 4,
							"parameter_info" : "",
							"parameter_units" : "",
							"parameter_order" : 0,
							"parameter_defer" : 0
						}

					}

				}

			}
, 			{
				"box" : 				{
					"maxclass" : "live.menu",
					"varname" : "Osc3 Mode",
					"outlettype" : [ "", "", "float" ],
					"patching_rect" : [ 300.0, 660.0, 78.0, 15.0 ],
					"presentation" : 1,
					"id" : "obj-37",
					"parameter_enable" : 1,
					"pictures" : [  ],
					"numinlets" : 1,
					"presentation_rect" : [ 14.0, 289.0, 51.0, 15.0 ],
					"numoutlets" : 3,
					"saved_attribute_attributes" : 					{
						"valueof" : 						{
							"parameter_speedlim" : 1.0,
							"parameter_invisible" : 0,
							"parameter_steps" : 0,
							"parameter_annotation_name" : "",
							"parameter_enum" : [ "Off", "Osc2Slave", "Saw", "Pulse", "Sin", "Triangle", "3", "4", "5", "6", "7", "8", "9", "10", "11", "12", "13", "14", "15", "16", "17", "18", "19", "20", "21", "22", "23", "24", "25", "26", "27", "28", "29", "30", "31", "32", "33", "34", "35", "36", "37", "38", "39", "40", "41", "42", "43", "44", "45", "46", "47", "48", "49", "50", "51", "52", "53", "54", "55", "56", "57", "58", "59", "60", "61", "62", "63", "64" ],
							"parameter_exponent" : 1.0,
							"parameter_unitstyle" : 10,
							"parameter_mmax" : 127.0,
							"parameter_mmin" : 0.0,
							"parameter_type" : 2,
							"parameter_initial_enable" : 0,
							"parameter_shortname" : "Osc3Mode",
							"parameter_modmax" : 127.0,
							"parameter_longname" : "Osc3 Mode",
							"parameter_modmin" : 0.0,
							"parameter_linknames" : 1,
							"parameter_modmode" : 0,
							"parameter_info" : "",
							"parameter_units" : "",
							"parameter_order" : 0,
							"parameter_defer" : 0
						}

					}

				}

			}
, 			{
				"box" : 				{
					"maxclass" : "live.dial",
					"varname" : "Osc3 Detune",
					"outlettype" : [ "", "float" ],
					"patching_rect" : [ 660.0, 660.0, 44.0, 47.0 ],
					"presentation" : 1,
					"id" : "obj-34",
					"parameter_enable" : 1,
					"numinlets" : 1,
					"presentation_rect" : [ 133.0, 266.0, 44.0, 47.0 ],
					"numoutlets" : 2,
					"saved_attribute_attributes" : 					{
						"valueof" : 						{
							"parameter_speedlim" : 1.0,
							"parameter_invisible" : 0,
							"parameter_steps" : 0,
							"parameter_annotation_name" : "",
							"parameter_exponent" : 1.0,
							"parameter_unitstyle" : 9,
							"parameter_mmax" : 127.0,
							"parameter_mmin" : 0.0,
							"parameter_type" : 0,
							"parameter_initial_enable" : 0,
							"parameter_shortname" : "Detune3",
							"parameter_modmax" : 127.0,
							"parameter_longname" : "Osc3 Detune",
							"parameter_modmin" : 0.0,
							"parameter_linknames" : 1,
							"parameter_modmode" : 4,
							"parameter_info" : "",
							"parameter_units" : "-%i",
							"parameter_order" : 0,
							"parameter_defer" : 0
						}

					}

				}

			}
, 			{
				"box" : 				{
					"maxclass" : "live.dial",
					"varname" : "Osc3 Semitone",
					"outlettype" : [ "", "float" ],
					"patching_rect" : [ 555.0, 660.0, 55.0, 47.0 ],
					"presentation" : 1,
					"id" : "obj-35",
					"parameter_enable" : 1,
					"numinlets" : 1,
					"presentation_rect" : [ 66.0, 266.0, 55.0, 47.0 ],
					"numoutlets" : 2,
					"saved_attribute_attributes" : 					{
						"valueof" : 						{
							"parameter_speedlim" : 1.0,
							"parameter_invisible" : 0,
							"parameter_steps" : 0,
							"parameter_annotation_name" : "",
							"parameter_exponent" : 1.0,
							"parameter_unitstyle" : 7,
							"parameter_mmax" : 48.0,
							"parameter_mmin" : -48.0,
							"parameter_type" : 0,
							"parameter_initial_enable" : 0,
							"parameter_shortname" : "Semitone3",
							"parameter_modmax" : 48.0,
							"parameter_longname" : "Osc3 Semitone",
							"parameter_modmin" : -48.0,
							"parameter_linknames" : 1,
							"parameter_modmode" : 4,
							"parameter_info" : "",
							"parameter_units" : "",
							"parameter_order" : 0,
							"parameter_defer" : 0
						}

					}

				}

			}
, 			{
				"box" : 				{
					"maxclass" : "live.menu",
					"varname" : "Osc FM Mode",
					"outlettype" : [ "", "", "float" ],
					"patching_rect" : [ 30.0, 660.0, 63.0, 15.0 ],
					"presentation" : 1,
					"id" : "obj-33",
					"parameter_enable" : 1,
					"pictures" : [  ],
					"numinlets" : 1,
					"presentation_rect" : [ 313.0, 212.0, 63.0, 15.0 ],
					"numoutlets" : 3,
					"saved_attribute_attributes" : 					{
						"valueof" : 						{
							"parameter_speedlim" : 1.0,
							"parameter_invisible" : 0,
							"parameter_steps" : 0,
							"parameter_annotation_name" : "",
							"parameter_enum" : [ "PosTri", "Tri", "Wave", "Noise", "In L", "In L+R", "In R", "Aux1 L", "Aux1 L+R", "Aux1 R", "Aux2 L", "Aux2 L+R", "Aux2 R" ],
							"parameter_exponent" : 1.0,
							"parameter_unitstyle" : 10,
							"parameter_mmax" : 127.0,
							"parameter_mmin" : 0.0,
							"parameter_type" : 2,
							"parameter_initial_enable" : 0,
							"parameter_shortname" : "OscFMMode",
							"parameter_modmax" : 127.0,
							"parameter_longname" : "Osc FM Mode",
							"parameter_modmin" : 0.0,
							"parameter_linknames" : 1,
							"parameter_modmode" : 0,
							"parameter_info" : "",
							"parameter_units" : "",
							"parameter_order" : 0,
							"parameter_defer" : 0
						}

					}

				}

			}
, 			{
				"box" : 				{
					"maxclass" : "live.dial",
					"varname" : "Osc2 FM Amount",
					"outlettype" : [ "", "float" ],
					"patching_rect" : [ 1005.0, 210.0, 60.0, 47.0 ],
					"presentation" : 1,
					"id" : "obj-31",
					"parameter_enable" : 1,
					"numinlets" : 1,
					"presentation_rect" : [ 273.0, 153.0, 60.0, 47.0 ],
					"numoutlets" : 2,
					"saved_attribute_attributes" : 					{
						"valueof" : 						{
							"parameter_speedlim" : 1.0,
							"parameter_invisible" : 0,
							"parameter_steps" : 0,
							"parameter_annotation_name" : "",
							"parameter_exponent" : 1.0,
							"parameter_unitstyle" : 0,
							"parameter_mmax" : 127.0,
							"parameter_mmin" : 0.0,
							"parameter_type" : 0,
							"parameter_initial_enable" : 0,
							"parameter_shortname" : "FM Amount",
							"parameter_modmax" : 127.0,
							"parameter_longname" : "Osc2 FM Amount",
							"parameter_modmin" : 0.0,
							"parameter_linknames" : 1,
							"parameter_modmode" : 4,
							"parameter_info" : "",
							"parameter_units" : "",
							"parameter_order" : 0,
							"parameter_defer" : 0
						}

					}

				}

			}
, 			{
				"box" : 				{
					"maxclass" : "live.toggle",
					"varname" : "Osc2 Sync",
					"outlettype" : [ "" ],
					"patching_rect" : [ 1095.0, 210.0, 15.0, 15.0 ],
					"presentation" : 1,
					"id" : "obj-30",
					"parameter_enable" : 1,
					"numinlets" : 1,
					"presentation_rect" : [ 277.0, 32.0, 15.0, 15.0 ],
					"numoutlets" : 1,
					"saved_attribute_attributes" : 					{
						"valueof" : 						{
							"parameter_speedlim" : 1.0,
							"parameter_invisible" : 0,
							"parameter_steps" : 0,
							"parameter_annotation_name" : "",
							"parameter_enum" : [ "0", "127" ],
							"parameter_exponent" : 1.0,
							"parameter_unitstyle" : 10,
							"parameter_mmax" : 1.0,
							"parameter_mmin" : 0.0,
							"parameter_type" : 2,
							"parameter_initial_enable" : 0,
							"parameter_shortname" : "Sync",
							"parameter_modmax" : 127.0,
							"parameter_longname" : "Osc2 Sync",
							"parameter_modmin" : 0.0,
							"parameter_linknames" : 1,
							"parameter_modmode" : 0,
							"parameter_info" : "",
							"parameter_units" : "",
							"parameter_order" : 0,
							"parameter_defer" : 0
						}

					}

				}

			}
, 			{
				"box" : 				{
					"maxclass" : "live.dial",
					"varname" : "Osc2 Detune",
					"outlettype" : [ "", "float" ],
					"patching_rect" : [ 915.0, 210.0, 44.0, 47.0 ],
					"presentation" : 1,
					"id" : "obj-29",
					"parameter_enable" : 1,
					"numinlets" : 1,
					"presentation_rect" : [ 595.0, 24.0, 44.0, 47.0 ],
					"numoutlets" : 2,
					"saved_attribute_attributes" : 					{
						"valueof" : 						{
							"parameter_speedlim" : 1.0,
							"parameter_invisible" : 0,
							"parameter_steps" : 0,
							"parameter_annotation_name" : "",
							"parameter_exponent" : 1.0,
							"parameter_unitstyle" : 0,
							"parameter_mmax" : 127.0,
							"parameter_mmin" : 0.0,
							"parameter_type" : 0,
							"parameter_initial_enable" : 0,
							"parameter_shortname" : "Detune2",
							"parameter_modmax" : 127.0,
							"parameter_longname" : "Osc2 Detune",
							"parameter_modmin" : 0.0,
							"parameter_linknames" : 1,
							"parameter_modmode" : 4,
							"parameter_info" : "",
							"parameter_units" : "",
							"parameter_order" : 0,
							"parameter_defer" : 0
						}

					}

				}

			}
, 			{
				"box" : 				{
					"maxclass" : "live.dial",
					"varname" : "Velocity > Osc2 Shape",
					"outlettype" : [ "", "float" ],
					"patching_rect" : [ 840.0, 660.0, 44.0, 47.0 ],
					"presentation" : 1,
					"id" : "obj-23",
					"parameter_enable" : 1,
					"numinlets" : 1,
					"presentation_rect" : [ 451.0, 79.0, 44.0, 47.0 ],
					"numoutlets" : 2,
					"saved_attribute_attributes" : 					{
						"valueof" : 						{
							"parameter_speedlim" : 1.0,
							"parameter_invisible" : 0,
							"parameter_steps" : 0,
							"parameter_annotation_name" : "",
							"parameter_exponent" : 1.0,
							"parameter_unitstyle" : 0,
							"parameter_mmax" : 63.0,
							"parameter_mmin" : -64.0,
							"parameter_type" : 0,
							"parameter_initial_enable" : 0,
							"parameter_shortname" : "Vel>Osc2",
							"parameter_modmax" : 63.0,
							"parameter_longname" : "Velocity > Osc2 Shape",
							"parameter_modmin" : -64.0,
							"parameter_linknames" : 1,
							"parameter_modmode" : 4,
							"parameter_info" : "",
							"parameter_units" : "",
							"parameter_order" : 0,
							"parameter_defer" : 0
						}

					}

				}

			}
, 			{
				"box" : 				{
					"maxclass" : "live.dial",
					"varname" : "Osc2 Keyfollow",
					"outlettype" : [ "", "float" ],
					"patching_rect" : [ 1410.0, 210.0, 60.0, 47.0 ],
					"presentation" : 1,
					"id" : "obj-24",
					"parameter_enable" : 1,
					"numinlets" : 1,
					"presentation_rect" : [ 586.0, 75.0, 60.0, 47.0 ],
					"numoutlets" : 2,
					"saved_attribute_attributes" : 					{
						"valueof" : 						{
							"parameter_speedlim" : 1.0,
							"parameter_invisible" : 0,
							"parameter_steps" : 0,
							"parameter_annotation_name" : "",
							"parameter_exponent" : 1.0,
							"parameter_unitstyle" : 0,
							"parameter_mmax" : 63.0,
							"parameter_mmin" : -64.0,
							"parameter_type" : 0,
							"parameter_initial_enable" : 0,
							"parameter_shortname" : "Keyfollow2",
							"parameter_modmax" : 63.0,
							"parameter_longname" : "Osc2 Keyfollow",
							"parameter_modmin" : -64.0,
							"parameter_linknames" : 1,
							"parameter_modmode" : 4,
							"parameter_info" : "",
							"parameter_units" : "",
							"parameter_order" : 0,
							"parameter_defer" : 0
						}

					}

				}

			}
, 			{
				"box" : 				{
					"maxclass" : "live.dial",
					"varname" : "Osc2 Semitone",
					"outlettype" : [ "", "float" ],
					"patching_rect" : [ 810.0, 210.0, 50.0, 47.0 ],
					"presentation" : 1,
					"id" : "obj-25",
					"parameter_enable" : 1,
					"numinlets" : 1,
					"presentation_rect" : [ 445.0, 26.0, 50.0, 47.0 ],
					"numoutlets" : 2,
					"saved_attribute_attributes" : 					{
						"valueof" : 						{
							"parameter_speedlim" : 1.0,
							"parameter_invisible" : 0,
							"parameter_steps" : 0,
							"parameter_annotation_name" : "",
							"parameter_exponent" : 1.0,
							"parameter_unitstyle" : 7,
							"parameter_mmax" : 48.0,
							"parameter_mmin" : -48.0,
							"parameter_type" : 0,
							"parameter_initial_enable" : 0,
							"parameter_shortname" : "Semitone2",
							"parameter_modmax" : 48.0,
							"parameter_longname" : "Osc2 Semitone",
							"parameter_modmin" : -48.0,
							"parameter_linknames" : 1,
							"parameter_modmode" : 4,
							"parameter_info" : "",
							"parameter_units" : "",
							"parameter_order" : 0,
							"parameter_defer" : 0
						}

					}

				}

			}
, 			{
				"box" : 				{
					"maxclass" : "live.menu",
					"varname" : "Osc2 Wave Select",
					"outlettype" : [ "", "", "float" ],
					"patching_rect" : [ 720.0, 210.0, 56.0, 15.0 ],
					"presentation" : 1,
					"id" : "obj-26",
					"parameter_enable" : 1,
					"pictures" : [  ],
					"numinlets" : 1,
					"presentation_rect" : [ 517.0, 71.0, 56.0, 15.0 ],
					"numoutlets" : 3,
					"saved_attribute_attributes" : 					{
						"valueof" : 						{
							"parameter_speedlim" : 1.0,
							"parameter_invisible" : 0,
							"parameter_steps" : 0,
							"parameter_annotation_name" : "",
							"parameter_enum" : [ "Sin", "Triangle", "3", "4", "5", "6", "7", "8", "9", "10", "11", "12", "13", "14", "15", "16", "17", "18", "19", "20", "21", "22", "23", "24", "25", "26", "27", "28", "29", "30", "31", "32", "33", "34", "35", "36", "37", "38", "39", "40", "41", "42", "43", "44", "45", "46", "47", "48", "49", "50", "51", "52", "53", "54", "55", "56", "57", "58", "59", "60", "61", "62", "63", "64" ],
							"parameter_exponent" : 1.0,
							"parameter_unitstyle" : 10,
							"parameter_mmax" : 127.0,
							"parameter_mmin" : 0.0,
							"parameter_type" : 2,
							"parameter_initial_enable" : 0,
							"parameter_shortname" : "WaveSel2",
							"parameter_modmax" : 127.0,
							"parameter_longname" : "Osc2 Wave Select",
							"parameter_modmin" : 0.0,
							"parameter_linknames" : 1,
							"parameter_modmode" : 0,
							"parameter_info" : "",
							"parameter_units" : "",
							"parameter_order" : 0,
							"parameter_defer" : 0
						}

					}

				}

			}
, 			{
				"box" : 				{
					"maxclass" : "live.dial",
					"varname" : "Osc2 PW",
					"outlettype" : [ "", "float" ],
					"patching_rect" : [ 630.0, 210.0, 44.0, 47.0 ],
					"presentation" : 1,
					"id" : "obj-27",
					"parameter_enable" : 1,
					"numinlets" : 1,
					"presentation_rect" : [ 519.0, 89.0, 44.0, 47.0 ],
					"numoutlets" : 2,
					"saved_attribute_attributes" : 					{
						"valueof" : 						{
							"parameter_speedlim" : 1.0,
							"parameter_invisible" : 0,
							"parameter_steps" : 0,
							"parameter_annotation_name" : "",
							"parameter_exponent" : 1.0,
							"parameter_unitstyle" : 0,
							"parameter_mmax" : 127.0,
							"parameter_mmin" : 0.0,
							"parameter_type" : 0,
							"parameter_initial_enable" : 0,
							"parameter_shortname" : "PW2",
							"parameter_modmax" : 127.0,
							"parameter_longname" : "Osc2 PW",
							"parameter_modmin" : 0.0,
							"parameter_linknames" : 1,
							"parameter_modmode" : 4,
							"parameter_info" : "",
							"parameter_units" : "",
							"parameter_order" : 0,
							"parameter_defer" : 0
						}

					}

				}

			}
, 			{
				"box" : 				{
					"maxclass" : "live.dial",
					"varname" : "Osc2 Shape",
					"outlettype" : [ "", "float" ],
					"patching_rect" : [ 525.0, 210.0, 44.0, 47.0 ],
					"presentation" : 1,
					"id" : "obj-28",
					"parameter_enable" : 1,
					"numinlets" : 1,
					"presentation_rect" : [ 519.0, 21.0, 44.0, 47.0 ],
					"numoutlets" : 2,
					"saved_attribute_attributes" : 					{
						"valueof" : 						{
							"parameter_speedlim" : 1.0,
							"parameter_invisible" : 0,
							"parameter_steps" : 0,
							"parameter_annotation_name" : "",
							"parameter_exponent" : 1.0,
							"parameter_unitstyle" : 0,
							"parameter_mmax" : 63.0,
							"parameter_mmin" : -64.0,
							"parameter_type" : 0,
							"parameter_initial_enable" : 0,
							"parameter_shortname" : "Shape2",
							"parameter_modmax" : 63.0,
							"parameter_longname" : "Osc2 Shape",
							"parameter_modmin" : -64.0,
							"parameter_linknames" : 1,
							"parameter_modmode" : 4,
							"parameter_info" : "",
							"parameter_units" : "",
							"parameter_order" : 0,
							"parameter_defer" : 0
						}

					}

				}

			}
, 			{
				"box" : 				{
					"maxclass" : "live.dial",
					"varname" : "Velocity > Osc1 Shape",
					"outlettype" : [ "", "float" ],
					"patching_rect" : [ 735.0, 660.0, 44.0, 47.0 ],
					"presentation" : 1,
					"id" : "obj-22",
					"parameter_enable" : 1,
					"numinlets" : 1,
					"presentation_rect" : [ 149.0, 96.0, 44.0, 47.0 ],
					"numoutlets" : 2,
					"saved_attribute_attributes" : 					{
						"valueof" : 						{
							"parameter_speedlim" : 1.0,
							"parameter_invisible" : 0,
							"parameter_steps" : 0,
							"parameter_annotation_name" : "",
							"parameter_exponent" : 1.0,
							"parameter_unitstyle" : 0,
							"parameter_mmax" : 63.0,
							"parameter_mmin" : -64.0,
							"parameter_type" : 0,
							"parameter_initial_enable" : 0,
							"parameter_shortname" : "Vel>Osc1",
							"parameter_modmax" : 63.0,
							"parameter_longname" : "Velocity > Osc1 Shape",
							"parameter_modmin" : -64.0,
							"parameter_linknames" : 1,
							"parameter_modmode" : 4,
							"parameter_info" : "",
							"parameter_units" : "",
							"parameter_order" : 0,
							"parameter_defer" : 0
						}

					}

				}

			}
, 			{
				"box" : 				{
					"maxclass" : "live.dial",
					"varname" : "Osc1 Keyfollow",
					"outlettype" : [ "", "float" ],
					"patching_rect" : [ 420.0, 210.0, 57.0, 47.0 ],
					"presentation" : 1,
					"id" : "obj-21",
					"parameter_enable" : 1,
					"numinlets" : 1,
					"presentation_rect" : [ 17.0, 94.0, 57.0, 47.0 ],
					"numoutlets" : 2,
					"saved_attribute_attributes" : 					{
						"valueof" : 						{
							"parameter_speedlim" : 1.0,
							"parameter_invisible" : 0,
							"parameter_steps" : 0,
							"parameter_annotation_name" : "",
							"parameter_exponent" : 1.0,
							"parameter_unitstyle" : 0,
							"parameter_mmax" : 63.0,
							"parameter_mmin" : -64.0,
							"parameter_type" : 0,
							"parameter_initial_enable" : 0,
							"parameter_shortname" : "Keyfollow1",
							"parameter_modmax" : 63.0,
							"parameter_longname" : "Osc1 Keyfollow",
							"parameter_modmin" : -64.0,
							"parameter_linknames" : 1,
							"parameter_modmode" : 4,
							"parameter_info" : "",
							"parameter_units" : "",
							"parameter_order" : 0,
							"parameter_defer" : 0
						}

					}

				}

			}
, 			{
				"box" : 				{
					"maxclass" : "live.dial",
					"varname" : "Osc1 Semitone",
					"outlettype" : [ "", "float" ],
					"patching_rect" : [ 315.0, 210.0, 50.0, 47.0 ],
					"presentation" : 1,
					"id" : "obj-20",
					"parameter_enable" : 1,
					"numinlets" : 1,
					"presentation_rect" : [ 146.0, 30.0, 50.0, 47.0 ],
					"numoutlets" : 2,
					"saved_attribute_attributes" : 					{
						"valueof" : 						{
							"parameter_speedlim" : 1.0,
							"parameter_invisible" : 0,
							"parameter_steps" : 0,
							"parameter_annotation_name" : "",
							"parameter_exponent" : 1.0,
							"parameter_unitstyle" : 7,
							"parameter_mmax" : 48.0,
							"parameter_mmin" : -48.0,
							"parameter_type" : 0,
							"parameter_initial_enable" : 0,
							"parameter_shortname" : "Semitone1",
							"parameter_modmax" : 48.0,
							"parameter_longname" : "Osc1 Semitone",
							"parameter_modmin" : -48.0,
							"parameter_linknames" : 1,
							"parameter_modmode" : 4,
							"parameter_info" : "",
							"parameter_units" : "",
							"parameter_order" : 0,
							"parameter_defer" : 0
						}

					}

				}

			}
, 			{
				"box" : 				{
					"maxclass" : "live.menu",
					"varname" : "Osc1 Wave Select",
					"outlettype" : [ "", "", "float" ],
					"patching_rect" : [ 225.0, 210.0, 56.0, 15.0 ],
					"presentation" : 1,
					"id" : "obj-19",
					"parameter_enable" : 1,
					"pictures" : [  ],
					"numinlets" : 1,
					"presentation_rect" : [ 77.0, 81.0, 56.0, 15.0 ],
					"numoutlets" : 3,
					"saved_attribute_attributes" : 					{
						"valueof" : 						{
							"parameter_speedlim" : 1.0,
							"parameter_invisible" : 0,
							"parameter_steps" : 0,
							"parameter_annotation_name" : "",
							"parameter_enum" : [ "Sin", "Triangle", "3", "4", "5", "6", "7", "8", "9", "10", "11", "12", "13", "14", "15", "16", "17", "18", "19", "20", "21", "22", "23", "24", "25", "26", "27", "28", "29", "30", "31", "32", "33", "34", "35", "36", "37", "38", "39", "40", "41", "42", "43", "44", "45", "46", "47", "48", "49", "50", "51", "52", "53", "54", "55", "56", "57", "58", "59", "60", "61", "62", "63", "64" ],
							"parameter_exponent" : 1.0,
							"parameter_unitstyle" : 10,
							"parameter_mmax" : 127.0,
							"parameter_mmin" : 0.0,
							"parameter_type" : 2,
							"parameter_initial_enable" : 0,
							"parameter_shortname" : "WaveSel1",
							"parameter_modmax" : 127.0,
							"parameter_longname" : "Osc1 Wave Select",
							"parameter_modmin" : 0.0,
							"parameter_linknames" : 1,
							"parameter_modmode" : 0,
							"parameter_info" : "",
							"parameter_units" : "",
							"parameter_order" : 0,
							"parameter_defer" : 0
						}

					}

				}

			}
, 			{
				"box" : 				{
					"maxclass" : "live.dial",
					"varname" : "Osc1 PW",
					"outlettype" : [ "", "float" ],
					"patching_rect" : [ 135.0, 210.0, 44.0, 47.0 ],
					"presentation" : 1,
					"id" : "obj-18",
					"parameter_enable" : 1,
					"numinlets" : 1,
					"presentation_rect" : [ 81.0, 100.0, 44.0, 47.0 ],
					"numoutlets" : 2,
					"saved_attribute_attributes" : 					{
						"valueof" : 						{
							"parameter_speedlim" : 1.0,
							"parameter_invisible" : 0,
							"parameter_steps" : 0,
							"parameter_annotation_name" : "",
							"parameter_exponent" : 1.0,
							"parameter_unitstyle" : 0,
							"parameter_mmax" : 127.0,
							"parameter_mmin" : 0.0,
							"parameter_type" : 0,
							"parameter_initial_enable" : 0,
							"parameter_shortname" : "PW1",
							"parameter_modmax" : 127.0,
							"parameter_longname" : "Osc1 PW",
							"parameter_modmin" : 0.0,
							"parameter_linknames" : 1,
							"parameter_modmode" : 4,
							"parameter_info" : "",
							"parameter_units" : "",
							"parameter_order" : 0,
							"parameter_defer" : 0
						}

					}

				}

			}
, 			{
				"box" : 				{
					"maxclass" : "live.dial",
					"varname" : "Osc1 Shape",
					"outlettype" : [ "", "float" ],
					"patching_rect" : [ 30.0, 210.0, 44.0, 47.0 ],
					"presentation" : 1,
					"id" : "obj-16",
					"parameter_enable" : 1,
					"numinlets" : 1,
					"presentation_rect" : [ 83.0, 33.0, 44.0, 47.0 ],
					"numoutlets" : 2,
					"saved_attribute_attributes" : 					{
						"valueof" : 						{
							"parameter_speedlim" : 1.0,
							"parameter_invisible" : 0,
							"parameter_steps" : 0,
							"parameter_annotation_name" : "",
							"parameter_exponent" : 1.0,
							"parameter_unitstyle" : 0,
							"parameter_mmax" : 63.0,
							"parameter_mmin" : -64.0,
							"parameter_type" : 0,
							"parameter_initial_enable" : 0,
							"parameter_shortname" : "Shape1",
							"parameter_modmax" : 63.0,
							"parameter_longname" : "Osc1 Shape",
							"parameter_modmin" : -64.0,
							"parameter_linknames" : 1,
							"parameter_modmode" : 4,
							"parameter_info" : "",
							"parameter_units" : "",
							"parameter_order" : 0,
							"parameter_defer" : 0
						}

					}

				}

			}
, 			{
				"box" : 				{
					"maxclass" : "live.dial",
					"varname" : "Noise Color",
					"outlettype" : [ "", "float" ],
					"patching_rect" : [ 870.0, 330.0, 44.0, 47.0 ],
					"presentation" : 1,
					"id" : "obj-13",
					"parameter_enable" : 1,
					"numinlets" : 1,
					"presentation_rect" : [ 254.0, 266.0, 44.0, 47.0 ],
					"numoutlets" : 2,
					"saved_attribute_attributes" : 					{
						"valueof" : 						{
							"parameter_speedlim" : 1.0,
							"parameter_invisible" : 0,
							"parameter_steps" : 0,
							"parameter_annotation_name" : "",
							"parameter_exponent" : 1.0,
							"parameter_unitstyle" : 0,
							"parameter_mmax" : 63.0,
							"parameter_mmin" : -64.0,
							"parameter_type" : 0,
							"parameter_initial_enable" : 0,
							"parameter_shortname" : "Colour",
							"parameter_modmax" : 63.0,
							"parameter_longname" : "Noise Color",
							"parameter_modmin" : -64.0,
							"parameter_linknames" : 1,
							"parameter_modmode" : 4,
							"parameter_info" : "",
							"parameter_units" : "",
							"parameter_order" : 0,
							"parameter_defer" : 0
						}

					}

				}

			}
, 			{
				"box" : 				{
					"maxclass" : "live.tab",
					"varname" : "Suboscillator Shape",
					"outlettype" : [ "", "", "float" ],
					"patching_rect" : [ 330.0, 330.0, 54.0, 34.0 ],
					"presentation" : 1,
					"id" : "obj-9",
					"parameter_enable" : 1,
					"pictures" : [  ],
					"numinlets" : 1,
					"presentation_rect" : [ 95.0, 170.0, 54.0, 34.0 ],
					"numoutlets" : 3,
					"saved_attribute_attributes" : 					{
						"valueof" : 						{
							"parameter_speedlim" : 1.0,
							"parameter_invisible" : 0,
							"parameter_steps" : 0,
							"parameter_annotation_name" : "",
							"parameter_enum" : [ "Square", "Triangle" ],
							"parameter_exponent" : 1.0,
							"parameter_unitstyle" : 0,
							"parameter_mmax" : 127.0,
							"parameter_mmin" : 0.0,
							"parameter_type" : 2,
							"parameter_initial_enable" : 0,
							"parameter_shortname" : "SubShape",
							"parameter_modmax" : 127.0,
							"parameter_longname" : "Suboscillator Shape",
							"parameter_modmin" : 0.0,
							"parameter_linknames" : 1,
							"parameter_modmode" : 0,
							"parameter_info" : "",
							"parameter_units" : "",
							"parameter_order" : 0,
							"parameter_defer" : 0
						}

					}

				}

			}
 ],
		"lines" : [ 			{
				"patchline" : 				{
					"source" : [ "obj-28", 0 ],
					"destination" : [ "obj-222", 0 ],
					"hidden" : 0,
					"midpoints" : [ 534.5, 258.0, 510.0, 258.0, 510.0, 177.0, 534.5, 177.0 ]
				}

			}
, 			{
				"patchline" : 				{
					"source" : [ "obj-222", 0 ],
					"destination" : [ "obj-28", 0 ],
					"hidden" : 0,
					"midpoints" : [  ]
				}

			}
, 			{
				"patchline" : 				{
					"source" : [ "obj-21", 0 ],
					"destination" : [ "obj-221", 0 ],
					"hidden" : 0,
					"midpoints" : [ 429.5, 258.0, 405.0, 258.0, 405.0, 177.0, 429.5, 177.0 ]
				}

			}
, 			{
				"patchline" : 				{
					"source" : [ "obj-221", 0 ],
					"destination" : [ "obj-21", 0 ],
					"hidden" : 0,
					"midpoints" : [  ]
				}

			}
, 			{
				"patchline" : 				{
					"source" : [ "obj-217", 0 ],
					"destination" : [ "obj-16", 0 ],
					"hidden" : 0,
					"midpoints" : [  ]
				}

			}
, 			{
				"patchline" : 				{
					"source" : [ "obj-16", 0 ],
					"destination" : [ "obj-217", 0 ],
					"hidden" : 0,
					"midpoints" : [ 39.5, 258.0, 15.0, 258.0, 15.0, 177.0, 39.5, 177.0 ]
				}

			}
, 			{
				"patchline" : 				{
					"source" : [ "obj-218", 0 ],
					"destination" : [ "obj-18", 0 ],
					"hidden" : 0,
					"midpoints" : [  ]
				}

			}
, 			{
				"patchline" : 				{
					"source" : [ "obj-18", 0 ],
					"destination" : [ "obj-218", 0 ],
					"hidden" : 0,
					"midpoints" : [ 144.5, 258.0, 120.0, 258.0, 120.0, 177.0, 144.5, 177.0 ]
				}

			}
, 			{
				"patchline" : 				{
					"source" : [ "obj-216", 0 ],
					"destination" : [ "obj-19", 0 ],
					"hidden" : 0,
					"midpoints" : [  ]
				}

			}
, 			{
				"patchline" : 				{
					"source" : [ "obj-19", 0 ],
					"destination" : [ "obj-216", 0 ],
					"hidden" : 0,
					"midpoints" : [ 234.5, 225.0, 222.0, 225.0, 222.0, 177.0, 234.5, 177.0 ]
				}

			}
, 			{
				"patchline" : 				{
					"source" : [ "obj-219", 0 ],
					"destination" : [ "obj-20", 0 ],
					"hidden" : 0,
					"midpoints" : [ 324.5, 213.0, 324.5, 213.0 ]
				}

			}
, 			{
				"patchline" : 				{
					"source" : [ "obj-20", 0 ],
					"destination" : [ "obj-219", 0 ],
					"hidden" : 0,
					"midpoints" : [ 324.5, 258.0, 300.0, 258.0, 300.0, 177.0, 324.5, 177.0 ]
				}

			}
, 			{
				"patchline" : 				{
					"source" : [ "obj-1", 0 ],
					"destination" : [ "obj-27", 0 ],
					"hidden" : 0,
					"midpoints" : [  ]
				}

			}
, 			{
				"patchline" : 				{
					"source" : [ "obj-27", 0 ],
					"destination" : [ "obj-1", 0 ],
					"hidden" : 0,
					"midpoints" : [ 639.5, 258.0, 615.0, 258.0, 615.0, 177.0, 639.5, 177.0 ]
				}

			}
, 			{
				"patchline" : 				{
					"source" : [ "obj-3", 0 ],
					"destination" : [ "obj-26", 0 ],
					"hidden" : 0,
					"midpoints" : [  ]
				}

			}
, 			{
				"patchline" : 				{
					"source" : [ "obj-26", 0 ],
					"destination" : [ "obj-3", 0 ],
					"hidden" : 0,
					"midpoints" : [ 729.5, 225.0, 717.0, 225.0, 717.0, 177.0, 729.5, 177.0 ]
				}

			}
, 			{
				"patchline" : 				{
					"source" : [ "obj-4", 0 ],
					"destination" : [ "obj-25", 0 ],
					"hidden" : 0,
					"midpoints" : [  ]
				}

			}
, 			{
				"patchline" : 				{
					"source" : [ "obj-25", 0 ],
					"destination" : [ "obj-4", 0 ],
					"hidden" : 0,
					"midpoints" : [ 819.5, 258.0, 795.0, 258.0, 795.0, 177.0, 819.5, 177.0 ]
				}

			}
, 			{
				"patchline" : 				{
					"source" : [ "obj-6", 0 ],
					"destination" : [ "obj-29", 0 ],
					"hidden" : 0,
					"midpoints" : [  ]
				}

			}
, 			{
				"patchline" : 				{
					"source" : [ "obj-29", 0 ],
					"destination" : [ "obj-6", 0 ],
					"hidden" : 0,
					"midpoints" : [ 924.5, 258.0, 900.0, 258.0, 900.0, 177.0, 924.5, 177.0 ]
				}

			}
, 			{
				"patchline" : 				{
					"source" : [ "obj-10", 0 ],
					"destination" : [ "obj-31", 0 ],
					"hidden" : 0,
					"midpoints" : [  ]
				}

			}
, 			{
				"patchline" : 				{
					"source" : [ "obj-31", 0 ],
					"destination" : [ "obj-10", 0 ],
					"hidden" : 0,
					"midpoints" : [ 1014.5, 258.0, 990.0, 258.0, 990.0, 177.0, 1014.5, 177.0 ]
				}

			}
, 			{
				"patchline" : 				{
					"source" : [ "obj-14", 0 ],
					"destination" : [ "obj-30", 0 ],
					"hidden" : 0,
					"midpoints" : [  ]
				}

			}
, 			{
				"patchline" : 				{
					"source" : [ "obj-30", 0 ],
					"destination" : [ "obj-14", 0 ],
					"hidden" : 0,
					"midpoints" : [ 1104.0, 225.0, 1092.0, 225.0, 1092.0, 177.0, 1104.5, 177.0 ]
				}

			}
, 			{
				"patchline" : 				{
					"source" : [ "obj-15", 0 ],
					"destination" : [ "obj-121", 0 ],
					"hidden" : 0,
					"midpoints" : [  ]
				}

			}
, 			{
				"patchline" : 				{
					"source" : [ "obj-121", 0 ],
					"destination" : [ "obj-15", 0 ],
					"hidden" : 0,
					"midpoints" : [ 1209.5, 258.0, 1197.0, 258.0, 1197.0, 177.0, 1209.5, 177.0 ]
				}

			}
, 			{
				"patchline" : 				{
					"source" : [ "obj-17", 0 ],
					"destination" : [ "obj-122", 0 ],
					"hidden" : 0,
					"midpoints" : [  ]
				}

			}
, 			{
				"patchline" : 				{
					"source" : [ "obj-122", 0 ],
					"destination" : [ "obj-17", 0 ],
					"hidden" : 0,
					"midpoints" : [ 1314.5, 258.0, 1290.0, 258.0, 1290.0, 177.0, 1314.5, 177.0 ]
				}

			}
, 			{
				"patchline" : 				{
					"source" : [ "obj-32", 0 ],
					"destination" : [ "obj-24", 0 ],
					"hidden" : 0,
					"midpoints" : [  ]
				}

			}
, 			{
				"patchline" : 				{
					"source" : [ "obj-24", 0 ],
					"destination" : [ "obj-32", 0 ],
					"hidden" : 0,
					"midpoints" : [ 1419.5, 258.0, 1395.0, 258.0, 1395.0, 177.0, 1419.5, 177.0 ]
				}

			}
, 			{
				"patchline" : 				{
					"source" : [ "obj-36", 0 ],
					"destination" : [ "obj-202", 0 ],
					"hidden" : 0,
					"midpoints" : [  ]
				}

			}
, 			{
				"patchline" : 				{
					"source" : [ "obj-202", 0 ],
					"destination" : [ "obj-36", 0 ],
					"hidden" : 0,
					"midpoints" : [ 39.5, 357.0, 15.0, 357.0, 15.0, 297.0, 39.5, 297.0 ]
				}

			}
, 			{
				"patchline" : 				{
					"source" : [ "obj-43", 0 ],
					"destination" : [ "obj-40", 0 ],
					"hidden" : 0,
					"midpoints" : [  ]
				}

			}
, 			{
				"patchline" : 				{
					"source" : [ "obj-40", 0 ],
					"destination" : [ "obj-43", 0 ],
					"hidden" : 0,
					"midpoints" : [ 189.5, 357.0, 165.0, 357.0, 165.0, 297.0, 189.5, 297.0 ]
				}

			}
, 			{
				"patchline" : 				{
					"source" : [ "obj-46", 0 ],
					"destination" : [ "obj-9", 0 ],
					"hidden" : 0,
					"midpoints" : [  ]
				}

			}
, 			{
				"patchline" : 				{
					"source" : [ "obj-9", 0 ],
					"destination" : [ "obj-46", 0 ],
					"hidden" : 0,
					"midpoints" : [ 339.5, 366.0, 315.0, 366.0, 315.0, 297.0, 339.5, 297.0 ]
				}

			}
, 			{
				"patchline" : 				{
					"source" : [ "obj-47", 0 ],
					"destination" : [ "obj-126", 0 ],
					"hidden" : 0,
					"midpoints" : [  ]
				}

			}
, 			{
				"patchline" : 				{
					"source" : [ "obj-126", 0 ],
					"destination" : [ "obj-47", 0 ],
					"hidden" : 0,
					"midpoints" : [ 429.5, 357.0, 405.0, 357.0, 405.0, 297.0, 429.5, 297.0 ]
				}

			}
, 			{
				"patchline" : 				{
					"source" : [ "obj-48", 0 ],
					"destination" : [ "obj-127", 0 ],
					"hidden" : 0,
					"midpoints" : [  ]
				}

			}
, 			{
				"patchline" : 				{
					"source" : [ "obj-127", 0 ],
					"destination" : [ "obj-48", 0 ],
					"hidden" : 0,
					"midpoints" : [ 579.5, 357.0, 555.0, 357.0, 555.0, 297.0, 579.5, 297.0 ]
				}

			}
, 			{
				"patchline" : 				{
					"source" : [ "obj-49", 0 ],
					"destination" : [ "obj-132", 0 ],
					"hidden" : 0,
					"midpoints" : [  ]
				}

			}
, 			{
				"patchline" : 				{
					"source" : [ "obj-132", 0 ],
					"destination" : [ "obj-49", 0 ],
					"hidden" : 0,
					"midpoints" : [ 729.5, 357.0, 705.0, 357.0, 705.0, 297.0, 729.5, 297.0 ]
				}

			}
, 			{
				"patchline" : 				{
					"source" : [ "obj-50", 0 ],
					"destination" : [ "obj-13", 0 ],
					"hidden" : 0,
					"midpoints" : [ 877.0, 318.0 ]
				}

			}
, 			{
				"patchline" : 				{
					"source" : [ "obj-13", 0 ],
					"destination" : [ "obj-50", 0 ],
					"hidden" : 0,
					"midpoints" : [ 879.5, 378.0, 855.0, 378.0, 855.0, 297.0, 879.5, 297.0 ]
				}

			}
, 			{
				"patchline" : 				{
					"source" : [ "obj-51", 0 ],
					"destination" : [ "obj-74", 0 ],
					"hidden" : 0,
					"midpoints" : [  ]
				}

			}
, 			{
				"patchline" : 				{
					"source" : [ "obj-74", 0 ],
					"destination" : [ "obj-51", 0 ],
					"hidden" : 0,
					"midpoints" : [ 39.5, 540.0, 27.0, 540.0, 27.0, 492.0, 39.5, 492.0 ]
				}

			}
, 			{
				"patchline" : 				{
					"source" : [ "obj-52", 0 ],
					"destination" : [ "obj-75", 0 ],
					"hidden" : 0,
					"midpoints" : [  ]
				}

			}
, 			{
				"patchline" : 				{
					"source" : [ "obj-75", 0 ],
					"destination" : [ "obj-52", 0 ],
					"hidden" : 0,
					"midpoints" : [ 129.5, 573.0, 105.0, 573.0, 105.0, 492.0, 129.5, 492.0 ]
				}

			}
, 			{
				"patchline" : 				{
					"source" : [ "obj-53", 0 ],
					"destination" : [ "obj-77", 0 ],
					"hidden" : 0,
					"midpoints" : [  ]
				}

			}
, 			{
				"patchline" : 				{
					"source" : [ "obj-77", 0 ],
					"destination" : [ "obj-53", 0 ],
					"hidden" : 0,
					"midpoints" : [ 219.5, 573.0, 195.0, 573.0, 195.0, 492.0, 219.5, 492.0 ]
				}

			}
, 			{
				"patchline" : 				{
					"source" : [ "obj-59", 0 ],
					"destination" : [ "obj-78", 0 ],
					"hidden" : 0,
					"midpoints" : [  ]
				}

			}
, 			{
				"patchline" : 				{
					"source" : [ "obj-78", 0 ],
					"destination" : [ "obj-59", 0 ],
					"hidden" : 0,
					"midpoints" : [ 309.5, 573.0, 285.0, 573.0, 285.0, 492.0, 309.5, 492.0 ]
				}

			}
, 			{
				"patchline" : 				{
					"source" : [ "obj-60", 0 ],
					"destination" : [ "obj-33", 0 ],
					"hidden" : 0,
					"midpoints" : [  ]
				}

			}
, 			{
				"patchline" : 				{
					"source" : [ "obj-33", 0 ],
					"destination" : [ "obj-60", 0 ],
					"hidden" : 0,
					"midpoints" : [ 39.5, 675.0, 27.0, 675.0, 27.0, 627.0, 39.5, 627.0 ]
				}

			}
, 			{
				"patchline" : 				{
					"source" : [ "obj-61", 0 ],
					"destination" : [ "obj-38", 0 ],
					"hidden" : 0,
					"midpoints" : [  ]
				}

			}
, 			{
				"patchline" : 				{
					"source" : [ "obj-38", 0 ],
					"destination" : [ "obj-61", 0 ],
					"hidden" : 0,
					"midpoints" : [ 129.5, 708.0, 105.0, 708.0, 105.0, 627.0, 129.5, 627.0 ]
				}

			}
, 			{
				"patchline" : 				{
					"source" : [ "obj-62", 0 ],
					"destination" : [ "obj-80", 0 ],
					"hidden" : 0,
					"midpoints" : [  ]
				}

			}
, 			{
				"patchline" : 				{
					"source" : [ "obj-80", 0 ],
					"destination" : [ "obj-62", 0 ],
					"hidden" : 0,
					"midpoints" : [ 219.5, 708.0, 195.0, 708.0, 195.0, 627.0, 219.5, 627.0 ]
				}

			}
, 			{
				"patchline" : 				{
					"source" : [ "obj-63", 0 ],
					"destination" : [ "obj-37", 0 ],
					"hidden" : 0,
					"midpoints" : [  ]
				}

			}
, 			{
				"patchline" : 				{
					"source" : [ "obj-37", 0 ],
					"destination" : [ "obj-63", 0 ],
					"hidden" : 0,
					"midpoints" : [ 309.5, 675.0, 297.0, 675.0, 297.0, 627.0, 309.5, 627.0 ]
				}

			}
, 			{
				"patchline" : 				{
					"source" : [ "obj-64", 0 ],
					"destination" : [ "obj-7", 0 ],
					"hidden" : 0,
					"midpoints" : [  ]
				}

			}
, 			{
				"patchline" : 				{
					"source" : [ "obj-7", 0 ],
					"destination" : [ "obj-64", 0 ],
					"hidden" : 0,
					"midpoints" : [ 414.5, 687.0, 390.0, 687.0, 390.0, 627.0, 414.5, 627.0 ]
				}

			}
, 			{
				"patchline" : 				{
					"source" : [ "obj-65", 0 ],
					"destination" : [ "obj-35", 0 ],
					"hidden" : 0,
					"midpoints" : [  ]
				}

			}
, 			{
				"patchline" : 				{
					"source" : [ "obj-35", 0 ],
					"destination" : [ "obj-65", 0 ],
					"hidden" : 0,
					"midpoints" : [ 564.5, 708.0, 540.0, 708.0, 540.0, 627.0, 564.5, 627.0 ]
				}

			}
, 			{
				"patchline" : 				{
					"source" : [ "obj-66", 0 ],
					"destination" : [ "obj-34", 0 ],
					"hidden" : 0,
					"midpoints" : [  ]
				}

			}
, 			{
				"patchline" : 				{
					"source" : [ "obj-34", 0 ],
					"destination" : [ "obj-66", 0 ],
					"hidden" : 0,
					"midpoints" : [ 669.5, 708.0, 645.0, 708.0, 645.0, 627.0, 669.5, 627.0 ]
				}

			}
, 			{
				"patchline" : 				{
					"source" : [ "obj-67", 0 ],
					"destination" : [ "obj-22", 0 ],
					"hidden" : 0,
					"midpoints" : [  ]
				}

			}
, 			{
				"patchline" : 				{
					"source" : [ "obj-22", 0 ],
					"destination" : [ "obj-67", 0 ],
					"hidden" : 0,
					"midpoints" : [ 744.5, 708.0, 732.0, 708.0, 732.0, 627.0, 744.5, 627.0 ]
				}

			}
, 			{
				"patchline" : 				{
					"source" : [ "obj-69", 0 ],
					"destination" : [ "obj-23", 0 ],
					"hidden" : 0,
					"midpoints" : [  ]
				}

			}
, 			{
				"patchline" : 				{
					"source" : [ "obj-23", 0 ],
					"destination" : [ "obj-69", 0 ],
					"hidden" : 0,
					"midpoints" : [ 849.5, 708.0, 825.0, 708.0, 825.0, 627.0, 849.5, 627.0 ]
				}

			}
, 			{
				"patchline" : 				{
					"source" : [ "obj-70", 0 ],
					"destination" : [ "obj-128", 0 ],
					"hidden" : 0,
					"midpoints" : [  ]
				}

			}
, 			{
				"patchline" : 				{
					"source" : [ "obj-128", 0 ],
					"destination" : [ "obj-70", 0 ],
					"hidden" : 0,
					"midpoints" : [ 954.5, 708.0, 930.0, 708.0, 930.0, 627.0, 954.5, 627.0 ]
				}

			}
, 			{
				"patchline" : 				{
					"source" : [ "obj-71", 0 ],
					"destination" : [ "obj-129", 0 ],
					"hidden" : 0,
					"midpoints" : [  ]
				}

			}
, 			{
				"patchline" : 				{
					"source" : [ "obj-129", 0 ],
					"destination" : [ "obj-71", 0 ],
					"hidden" : 0,
					"midpoints" : [ 1059.5, 708.0, 1035.0, 708.0, 1035.0, 627.0, 1059.5, 627.0 ]
				}

			}
, 			{
				"patchline" : 				{
					"source" : [ "obj-73", 0 ],
					"destination" : [ "obj-42", 0 ],
					"hidden" : 0,
					"midpoints" : [  ]
				}

			}
, 			{
				"patchline" : 				{
					"source" : [ "obj-42", 0 ],
					"destination" : [ "obj-73", 0 ],
					"hidden" : 0,
					"midpoints" : [ 39.5, 153.0, 15.0, 153.0, 15.0, 72.0, 39.5, 72.0 ]
				}

			}
 ],
		"parameters" : 		{
			"obj-28" : [ "Osc2 Shape", "Shape2", 0 ],
			"obj-22" : [ "Velocity > Osc1 Shape", "Vel>Osc1", 0 ],
			"obj-132" : [ "Ringmodulator Volume", "Ring Modulator", 0 ],
			"obj-21" : [ "Osc1 Keyfollow", "Keyfollow1", 0 ],
			"obj-20" : [ "Osc1 Semitone", "Semitone1", 0 ],
			"obj-19" : [ "Osc1 Wave Select", "WaveSel1", 0 ],
			"obj-18" : [ "Osc1 PW", "PW1", 0 ],
			"obj-40" : [ "Suboscillator Volume", "Sub Osc", 0 ],
			"obj-7" : [ "Osc3 Volume", "OSC 3", 0 ],
			"obj-16" : [ "Osc1 Shape", "Shape1", 0 ],
			"obj-13" : [ "Noise Color", "Colour", 0 ],
			"obj-202" : [ "Osc 1/2 Balance", "Osc 1/2 Balance", 0 ],
			"obj-80" : [ "Punch Intensity", "Intensity", 0 ],
			"obj-78" : [ "Unison LFO Phase", "LFO Phase", 0 ],
			"obj-77" : [ "Unison Pan Spread", "Pan Spread", 0 ],
			"obj-75" : [ "Unison Detune", "UniDetune", 0 ],
			"obj-35" : [ "Osc3 Semitone", "Semitone3", 0 ],
			"obj-33" : [ "Osc FM Mode", "OscFMMode", 0 ],
			"obj-34" : [ "Osc3 Detune", "Detune3", 0 ],
			"obj-30" : [ "Osc2 Sync", "Sync", 0 ],
			"obj-129" : [ "Velocity > FM Amount", "Vel>FM", 0 ],
			"obj-128" : [ "Velocity > PW", "Vel>PW", 0 ],
			"obj-122" : [ "FM Filter Env Amount", "Env>FM", 0 ],
			"obj-121" : [ "Osc2 Filter Env Amount", "Env>Osc2", 0 ],
			"obj-38" : [ "Osc Init Phase", "Phase Init", 0 ],
			"obj-37" : [ "Osc3 Mode", "Osc3Mode", 0 ],
			"obj-31" : [ "Osc2 FM Amount", "FM Amount", 0 ],
			"obj-74" : [ "Unison Mode", "UnisonMode", 0 ],
			"obj-29" : [ "Osc2 Detune", "Detune2", 0 ],
			"obj-42" : [ "Portamento Time", "Porta", 0 ],
			"obj-23" : [ "Velocity > Osc2 Shape", "Vel>Osc2", 0 ],
			"obj-127" : [ "Noise Volume", "Noise", 0 ],
			"obj-24" : [ "Osc2 Keyfollow", "Keyfollow2", 0 ],
			"obj-126" : [ "Osc Mainvolume", "Osc Vol     Saturation", 0 ],
			"obj-25" : [ "Osc2 Semitone", "Semitone2", 0 ],
			"obj-26" : [ "Osc2 Wave Select", "WaveSel2", 0 ],
			"obj-9" : [ "Suboscillator Shape", "SubShape", 0 ],
			"obj-27" : [ "Osc2 PW", "PW2", 0 ]
		}

	}

}
