{
	"patcher" : 	{
		"fileversion" : 1,
		"rect" : [ 25.0, 69.0, 640.0, 480.0 ],
		"bglocked" : 0,
		"defrect" : [ 25.0, 69.0, 640.0, 480.0 ],
		"openrect" : [ 0.0, 0.0, 0.0, 0.0 ],
		"openinpresentation" : 1,
		"default_fontsize" : 12.0,
		"default_fontface" : 0,
		"default_fontname" : "Arial",
		"gridonopen" : 0,
		"gridsize" : [ 15.0, 15.0 ],
		"gridsnaponopen" : 0,
		"toolbarvisible" : 1,
		"boxanimatetime" : 200,
		"imprint" : 0,
		"enablehscroll" : 1,
		"enablevscroll" : 1,
		"devicewidth" : 0.0,
		"boxes" : [ 			{
				"box" : 				{
					"maxclass" : "live.text",
					"varname" : "TODO[1]",
					"automation" : "Negative",
					"patching_rect" : [ 14.0, 85.0, 52.0, 21.0 ],
					"numoutlets" : 2,
					"presentation" : 1,
					"parameter_enable" : 1,
					"automationon" : "Positive",
					"outlettype" : [ "", "" ],
					"text" : "Negative",
					"presentation_rect" : [ 0.0, 0.0, 52.0, 21.0 ],
					"id" : "obj-2",
					"numinlets" : 1,
					"texton" : "Positive",
					"saved_attribute_attributes" : 					{
						"valueof" : 						{
							"parameter_units" : "",
							"parameter_order" : 0,
							"parameter_defer" : 0,
							"parameter_speedlim" : 1.0,
							"parameter_steps" : 0,
							"parameter_invisible" : 0,
							"parameter_enum" : [ "Negative", "Positive" ],
							"parameter_exponent" : 1.0,
							"parameter_annotation_name" : "",
							"parameter_unitstyle" : 10,
							"parameter_mmax" : 1.0,
							"parameter_mmin" : 0.0,
							"parameter_type" : 2,
							"parameter_initial_enable" : 0,
							"parameter_shortname" : "TODO",
							"parameter_modmax" : 127.0,
							"parameter_longname" : "TODO[1]",
							"parameter_modmin" : 0.0,
							"parameter_linknames" : 1,
							"parameter_modmode" : 0,
							"parameter_info" : ""
						}

					}

				}

			}
, 			{
				"box" : 				{
					"maxclass" : "newobj",
					"text" : "send crm-virus-control-out",
					"patching_rect" : [ 14.0, 227.0, 138.0, 18.0 ],
					"numoutlets" : 0,
					"fontsize" : 10.0,
					"id" : "obj-6",
					"fontname" : "Arial Bold",
					"numinlets" : 1
				}

			}
, 			{
				"box" : 				{
					"maxclass" : "message",
					"text" : "#2 #1 $1",
					"patching_rect" : [ 14.0, 167.0, 49.0, 16.0 ],
					"numoutlets" : 1,
					"fontsize" : 10.0,
					"outlettype" : [ "" ],
					"id" : "obj-16",
					"fontname" : "Arial Bold",
					"numinlets" : 2
				}

			}
, 			{
				"box" : 				{
					"maxclass" : "newobj",
					"text" : "receive #1-poly-crm-virus-control-in",
					"patching_rect" : [ 14.0, 13.0, 181.0, 18.0 ],
					"numoutlets" : 1,
					"fontsize" : 10.0,
					"outlettype" : [ "" ],
					"id" : "obj-53",
					"fontname" : "Arial Bold",
					"numinlets" : 0
				}

			}
 ],
		"lines" : [ 			{
				"patchline" : 				{
					"source" : [ "obj-2", 0 ],
					"destination" : [ "obj-16", 0 ],
					"hidden" : 0,
					"midpoints" : [  ]
				}

			}
, 			{
				"patchline" : 				{
					"source" : [ "obj-53", 0 ],
					"destination" : [ "obj-2", 0 ],
					"hidden" : 0,
					"midpoints" : [  ]
				}

			}
, 			{
				"patchline" : 				{
					"source" : [ "obj-16", 0 ],
					"destination" : [ "obj-6", 0 ],
					"hidden" : 0,
					"midpoints" : [  ]
				}

			}
 ],
		"parameters" : 		{
			"obj-2" : [ "TODO[1]", "TODO", 0 ]
		}

	}

}
