{
	"patcher" : 	{
		"fileversion" : 1,
		"rect" : [ 207.0, 586.0, 640.0, 480.0 ],
		"bglocked" : 0,
		"defrect" : [ 207.0, 586.0, 640.0, 480.0 ],
		"openrect" : [ 0.0, 0.0, 0.0, 0.0 ],
		"openinpresentation" : 1,
		"default_fontsize" : 12.0,
		"default_fontface" : 0,
		"default_fontname" : "Arial",
		"gridonopen" : 0,
		"gridsize" : [ 15.0, 15.0 ],
		"gridsnaponopen" : 0,
		"toolbarvisible" : 1,
		"boxanimatetime" : 200,
		"imprint" : 0,
		"enablehscroll" : 1,
		"enablevscroll" : 1,
		"devicewidth" : 0.0,
		"boxes" : [ 			{
				"box" : 				{
					"maxclass" : "newobj",
					"text" : "+ 64",
					"outlettype" : [ "int" ],
					"patching_rect" : [ 44.0, 245.0, 34.0, 20.0 ],
					"id" : "obj-2",
					"fontname" : "Arial",
					"numinlets" : 2,
					"numoutlets" : 1,
					"fontsize" : 12.0
				}

			}
, 			{
				"box" : 				{
					"maxclass" : "newobj",
					"text" : "- 64",
					"outlettype" : [ "int" ],
					"patching_rect" : [ 40.0, 126.0, 32.5, 20.0 ],
					"id" : "obj-1",
					"fontname" : "Arial",
					"numinlets" : 2,
					"numoutlets" : 1,
					"fontsize" : 12.0
				}

			}
, 			{
				"box" : 				{
					"maxclass" : "newobj",
					"text" : "send crm-virus-control-out",
					"patching_rect" : [ 53.0, 341.0, 138.0, 18.0 ],
					"id" : "obj-10",
					"fontname" : "Arial Bold",
					"numinlets" : 1,
					"numoutlets" : 0,
					"fontsize" : 10.0
				}

			}
, 			{
				"box" : 				{
					"maxclass" : "newobj",
					"text" : "receive #1-cc-crm-virus-control-in",
					"outlettype" : [ "" ],
					"patching_rect" : [ 44.0, 87.0, 172.0, 18.0 ],
					"id" : "obj-7",
					"fontname" : "Arial Bold",
					"numinlets" : 0,
					"numoutlets" : 1,
					"fontsize" : 10.0
				}

			}
, 			{
				"box" : 				{
					"maxclass" : "message",
					"text" : "#2 #1 $1",
					"outlettype" : [ "" ],
					"patching_rect" : [ 44.0, 297.0, 49.0, 16.0 ],
					"id" : "obj-4",
					"fontname" : "Arial Bold",
					"numinlets" : 2,
					"numoutlets" : 1,
					"fontsize" : 10.0
				}

			}
, 			{
				"box" : 				{
					"maxclass" : "live.dial",
					"varname" : "TODO",
					"outlettype" : [ "", "float" ],
					"patching_rect" : [ 40.0, 167.0, 44.0, 47.0 ],
					"presentation" : 1,
					"id" : "obj-3",
					"parameter_enable" : 1,
					"numinlets" : 1,
					"numoutlets" : 2,
					"presentation_rect" : [ 0.0, 0.0, 44.0, 47.0 ],
					"saved_attribute_attributes" : 					{
						"valueof" : 						{
							"parameter_type" : 0,
							"parameter_initial_enable" : 0,
							"parameter_shortname" : "TODO",
							"parameter_modmax" : 63.0,
							"parameter_longname" : "TODO",
							"parameter_modmin" : -64.0,
							"parameter_linknames" : 1,
							"parameter_modmode" : 4,
							"parameter_info" : "",
							"parameter_units" : "",
							"parameter_order" : 0,
							"parameter_defer" : 0,
							"parameter_speedlim" : 1.0,
							"parameter_steps" : 0,
							"parameter_invisible" : 0,
							"parameter_exponent" : 1.0,
							"parameter_annotation_name" : "",
							"parameter_unitstyle" : 0,
							"parameter_mmax" : 63.0,
							"parameter_mmin" : -64.0
						}

					}

				}

			}
 ],
		"lines" : [ 			{
				"patchline" : 				{
					"source" : [ "obj-4", 0 ],
					"destination" : [ "obj-10", 0 ],
					"hidden" : 0,
					"midpoints" : [  ]
				}

			}
, 			{
				"patchline" : 				{
					"source" : [ "obj-7", 0 ],
					"destination" : [ "obj-1", 0 ],
					"hidden" : 0,
					"midpoints" : [  ]
				}

			}
, 			{
				"patchline" : 				{
					"source" : [ "obj-1", 0 ],
					"destination" : [ "obj-3", 0 ],
					"hidden" : 0,
					"midpoints" : [  ]
				}

			}
, 			{
				"patchline" : 				{
					"source" : [ "obj-3", 0 ],
					"destination" : [ "obj-2", 0 ],
					"hidden" : 0,
					"midpoints" : [  ]
				}

			}
, 			{
				"patchline" : 				{
					"source" : [ "obj-2", 0 ],
					"destination" : [ "obj-4", 0 ],
					"hidden" : 0,
					"midpoints" : [  ]
				}

			}
 ],
		"parameters" : 		{
			"obj-3" : [ "TODO", "TODO", 0 ]
		}

	}

}
